<svg xmlns="http://www.w3.org/2000/svg" viewBox="0 0 360 312.85"><defs><style>.path-light-gray{fill:#afb0b5}.path-blue{fill:#323a45}.path-dark-gray{fill:#7d7e7f}.path-red{fill:#981d20;opacity:.9}</style></defs><title>Agency Performance</title><path class="path-light-gray" d="M190.06 77a12.84 12.84 0 1 0-22.56 2.19A12.84 12.84 0 0 0 190.06 77zm-77.93 2.35c-14.11 9.53 0 30.73 14.25 21.35a12.84 12.84 0 1 0-14.25-21.35zM71.53 186.5c-15.28 3-13.09 25.48 2.48 25.44a13.19 13.19 0 0 0 2.51-.25 12.84 12.84 0 0 0-5-25.2zm20.37-43.88c4.95-11.74-8.37-22.74-19-15.67s-5.56 23.58 7.18 23.52a12.84 12.84 0 0 0 11.82-7.85zM270 196.44a12.84 12.84 0 1 0 15-10.29 12.84 12.84 0 0 0-15 10.29z"/><path class="path-blue" d="M272.51 127.85l-74.6 19.29A38.87 38.87 0 1 0 216.36 189L281 147.63l.15-.15c10.13-6.73 3.2-22.55-8.64-19.63zm-88.71 65.36a13.74 13.74 0 1 1 7.11-18.1h.09a13.78 13.78 0 0 1-7.2 18.1z"/><path class="path-dark-gray" d="M306.83 49.84a182 182 0 0 1 0 257.09 20.45 20.45 0 0 1-25.44 2.68l-43.19-28.17a20.06 20.06 0 0 1-1.57-32.44 20.31 20.31 0 0 1 24.11-1.37L289 266a141.21 141.21 0 1 0-221.48 0l28.31-18.4a20.4 20.4 0 0 1 24.33 1.4 20.06 20.06 0 0 1-1.76 32.31l-43.19 28.13a20.36 20.36 0 0 1-25.44-2.68 181.78 181.78 0 0 1 257-256.92z"/><path class="path-red" d="M248 97a12.84 12.84 0 1 0-17.79 3.58A12.84 12.84 0 0 0 248 97z"/></svg>