<svg xmlns="http://www.w3.org/2000/svg" viewBox="0 0 360 288.72"><defs><style>.a,.b,.c{fill:transparent}</style></defs><title>Artboard 1</title><path class="a" d="M16.31 245.32a16 16 0 0 0 0 31.91h5.32v-31.91zm122.31-74.45v31.9h31.91v-31.9zM37.58 64.53h26.59v10.63H42.9v74.45h42.54v10.63H42.9v42.54h63.81v-73.91h10.64v73.92H128v-37.23a5.31 5.31 0 0 1 5.32-5.32h42.54a5.31 5.31 0 0 1 5.32 5.32v37.22h10.63v-53.17H128V139h21.27V96.43h10.64V139h31.9V75.16h-74.46v31.93h-10.64V75.16H85.44V64.53h111.67a5.31 5.31 0 0 1 5.32 5.32V208.1a5.33 5.33 0 0 1-5.32 5.32H37.58a5.33 5.33 0 0 1-5.32-5.32V69.84a5.31 5.31 0 0 1 5.32-5.31zM16.31 43.25a15.8 15.8 0 0 0-16 16v181a26.29 26.29 0 0 1 16-5.48H277a16 16 0 1 0 0-31.91h-16V43.25zM271.68.71v191.44H277c6.22 0 11.42 3 16 6.61V16.67a15.8 15.8 0 0 0-16-16z"/><path class="b" d="M327.74 53.89v10.64h10.63v10.63h-10.63v10.63H349v10.64h-21.26v10.64h10.63v10.63h-10.63v10.64H349v10.63h-21.26v10.64h10.63v10.63h-10.63v10.64H349v10.63h-21.26v10.64h10.63v10.63h-10.63v10.64H349v10.63h-21.26v10.64h31.9V53.89h-31.9z"/><path class="c" d="M106.87 280.26l.05 7.75h74.27l-.01-7.55-74.31-.2zM96.06 266.52l-14.64 10.71 14.67 10.57-.03-21.28zM181.13 266.49l-74.31.28.03 8.17 74.29.2-.01-8.64v-.01zM191.9 266.36L192 288h6.68c5.51 0 9-3.49 8.95-6.82v-8c0-3.28-3.63-6.77-9-6.77z"/></svg>