<svg xmlns="http://www.w3.org/2000/svg" viewBox="0 0 360 285.53"><defs><style>.path-dark-gray{fill:#7d7e7f}.path-red{fill:#981d20;opacity:.9}.path-blue{opacity:.9;fill:#323a45}.path-light-gray{fill:#afb0b5}.path-white{fill:#fff}</style></defs><title>Cyber Strategy</title><path class="path-dark-gray" d="M16.47 18.31A16.31 16.31 0 0 0 0 34.78v212.48a27.15 27.15 0 0 1 16.47-5.66h269.18a16.47 16.47 0 1 0 0-32.95h-16.47V18.31z"/><path class="path-red" d="M338.04 30.28v10.99h7.32v10.97h-7.32v10.99h14.64v10.98h-14.64v10.98h7.32v10.98h-7.32v10.98h14.64v10.99h-14.64v10.98h7.32v10.98h-7.32v10.98h14.64v10.98h-14.64v10.99h7.32v10.98h-7.32v10.98h14.64v10.98h-14.64v10.98H360V30.28h-21.96z"/><path class="path-blue" d="M109.98 272.23l.06 8h76.68l-.01-7.8-76.73-.2zM103.52 258.04L88.4 269.1l15.15 10.91-.03-21.97zM186.65 258l-76.72.3.03 8.44 76.71.2-.02-8.92V258zM197.78 257.88l.11 22.35h6.9c5.69 0 9.26-3.61 9.24-7v-8.31c0-3.38-3.75-7-9.34-7z"/><path class="path-light-gray" d="M16.47 252.58a16.47 16.47 0 0 0 0 32.95H22v-32.95zM280.16 0v197.67h5.49c6.42 0 11.79 3.11 16.47 6.83v-188A16.31 16.31 0 0 0 285.65 0z"/><path class="path-white" d="M106 100.53h49.63v49.63H106zM171.42 100.53l33.17 49.63 33.15-49.63h-66.32zM85.1 125.35a24.81 24.81 0 1 1-24.81-24.81 24.82 24.82 0 0 1 24.81 24.81"/></svg>