<svg xmlns="http://www.w3.org/2000/svg" viewBox="0 0 360 271.79"><defs><style>.path-dark-blue-90,.path-red-90{opacity:.9}.path-blue,.path-blue-90{fill:#323a45}.path-white{fill:#fff}.path-dark-gray{fill:#7d7e7f}.path-red,.path-red-90{fill:#981d20}</style></defs><title>Tools and Solutions</title><path class="path-blue" d="M56.79 268l80-79.57L126.36 178l-7.49-7.43-12-11.91-7.49-7.45L89 140.86 9 220.44c-7.74 7.7-3.31 24.59 9.89 37.71S49 275.71 56.79 268z"/><path class="path-white" d="M.113 36.6L36.26.453 72.407 36.6 36.26 72.748z"/><path class="path-dark-gray" d="M256.72 237.5a19.83 19.83 0 1 1-19.83-19.83 19.83 19.83 0 0 1 19.83 19.83"/><path class="path-red" d="M317.09 194.42l27.09-6.76-1.03-2.05v-3.68l2-4-27.08 6.77 1.02 2.05v3.67l-2 4zM317.09 151.11l27.09-6.77-1.03-2.05v-3.67l2-4.01-27.08 6.77 1.02 2.05v3.67l-2 4.01zM317.09 179.99l27.09-6.77-1.03-2.05v-3.68l2-4-27.08 6.77 1.02 2.05v3.67l-2 4.01zM317.09 165.54l27.09-6.76-1.03-2.05v-3.68l2-4-27.08 6.77 1.02 2.05v3.67l-2 4zM317.09 136.67l27.09-6.77-1.03-2.05v-3.67l2-4.01-27.08 6.77 1.02 2.05v3.68l-2 4zM328.71 65.85h-19.25a2.4 2.4 0 0 0-.92.19 2.43 2.43 0 0 0-.79.52l-4.81 4.81a2.36 2.36 0 0 0-.52.78 2.43 2.43 0 0 0-.19.92v14.44h26.47zM359.81 72.15a2.36 2.36 0 0 0-.52-.78l-4.81-4.81a2.43 2.43 0 0 0-.79-.52 2.4 2.4 0 0 0-.92-.19h-19.24v21.66H360V73.07a2.29 2.29 0 0 0-.19-.92M316.68 122.33l28.88-7.22V92.32h-28.88v30.01zM316.68 203a2.42 2.42 0 0 0 .19.92 2.35 2.35 0 0 0 .52.78l4.81 4.81a2.45 2.45 0 0 0 .79.53 2.4 2.4 0 0 0 .92.18h14.44a2.4 2.4 0 0 0 .92-.18 2.45 2.45 0 0 0 .79-.53l4.81-4.81a2.35 2.35 0 0 0 .52-.78 2.29 2.29 0 0 0 .19-.92v-10.73l-28.88 7.22z"/><path class="path-blue" d="M176.35 121.94l26.89-26.74 22.35-5.96 43.29-61.35-18.42-18.31-61.71 43.03-5.98 22.23-26.9 26.74 20.48 20.36z"/><path class="path-dark-gray" d="M57.19 100.41l158.7 157.76a31.09 31.09 0 0 0 43.79 0 30.65 30.65 0 0 0 0-43.53L101 56.87a50.11 50.11 0 0 0-14.41-42.13 50.91 50.91 0 0 0-51.3-12.36C45.49 12.52 53.37 20.53 55.85 23 64.71 31.82 32 64.35 23.14 55.53c-2.48-2.46-10.55-10.29-20.75-20.44a50.19 50.19 0 0 0 12.45 51 50.74 50.74 0 0 0 42.35 14.32z"/><path class="path-red" d="M355 63.22c0 13.41-10.5 24.28-23.45 24.28S308.1 76.63 308.1 63.22s10.5-24.28 23.45-24.28S355 49.81 355 63.22"/></svg>