<svg xmlns="http://www.w3.org/2000/svg" viewBox="0 0 288 360" id="icon-help-hand">
  <defs>
    <style>
      .path-primary { fill: #fff; }
    </style>
  </defs>
  <title>Helping Hand</title>
  <path id="waves" class="path-primary nt" d="M288,337.77c-15.7,0-30.55-7.51-41.82-21.13L240,309.17l-6.18,7.47c-11.27,13.63-26.12,21.13-41.82,21.13s-30.55-7.51-41.82-21.13L144,309.17l-6.18,7.47C126.55,330.27,111.7,337.77,96,337.77s-30.55-7.51-41.82-21.13L48,309.17l-6.18,7.47C30.55,330.27,15.7,337.77,0,337.77V360c17.58,0,34.34-7.27,48-20.65C61.66,352.73,78.42,360,96,360s34.34-7.27,48-20.65C157.66,352.73,174.42,360,192,360s34.34-7.27,48-20.65C253.66,352.73,270.42,360,288,360Z"/>
  <path id="hand" class="path-primary nt" d="M227.78,140.57a21,21,0,0,0-21-21,20.78,20.78,0,0,0-10.5,2.82v-12.2c0-.51.05-1,.05-1.38a21,21,0,0,0-21-21,20.78,20.78,0,0,0-10.51,2.82,21,21,0,0,0-41.67,0,20.78,20.78,0,0,0-10.59-2.87,21,21,0,0,0-21,21v65.85a29.57,29.57,0,0,0-19-7,12.44,12.44,0,0,0-12.43,12.43v93.7a83.8,83.8,0,0,0,28.1,62.64,5.51,5.51,0,0,0,.75.8q1.28,1.11,2.59,2.16v72.09c0,2.06,2.26,3.75,5.07,3.83h.47c2.81-.07,5.07-1.77,5.07-3.83l-.08-64.87a82.76,82.76,0,0,0,13.27,6.21,5.4,5.4,0,1,0,3.69-10.15c-1.61-.58-3.18-1.24-4.74-1.93l0-.08-.51-.14a72.36,72.36,0,0,1-17.73-11.43,5,5,0,0,0-1.1-.72,73.3,73.3,0,0,1-24.35-54.58v-76.3l0-17.41a1.91,1.91,0,0,1,1.91-1.91,19,19,0,0,1,19,19v40.83a5.26,5.26,0,0,0,5.25,5.26h0a42.4,42.4,0,0,1,42.35,42.36,5.26,5.26,0,0,0,10.51,0,52.83,52.83,0,0,0-47.61-52.62V108.84a10.45,10.45,0,1,1,20.91,0,11.07,11.07,0,0,1-.08,1.25v93.63a5.26,5.26,0,0,0,5.17,5.26l.17,0,.1,0a5.26,5.26,0,0,0,5.21-5.26V93.86c0-.24,0-.49,0-.73a10.45,10.45,0,0,1,20.91,0c0,.26,0,.51,0,.8v13.56c0,.45,0,.9,0,1.36s0,.85,0,1.19v93.69a5.26,5.26,0,1,0,10.51,0V107.93a10.45,10.45,0,0,1,20.87.9c0,.25,0,.49,0,.79V212.5a5.27,5.27,0,0,0,5.07,5.25h.46a5.27,5.27,0,0,0,5.07-5.25V141.32c0-.25,0-.5,0-.75a10.45,10.45,0,1,1,20.91,0c0,.25,0,.5,0,.79V273.85a73.25,73.25,0,0,1-22.66,53,5.29,5.29,0,0,0-1.16.79,72.18,72.18,0,0,1-24.55,15.07,5.4,5.4,0,0,0,1.86,10.47,5.32,5.32,0,0,0,1.85-.33,82.8,82.8,0,0,0,13.23-6.22v64.91c0,2.06,2.26,3.75,5.07,3.83h.46c2.81-.07,5.07-1.77,5.07-3.83l-.09-72.15c1.52-1.23,3-2.5,4.47-3.84.13-.12.23-.27.35-.4a83.78,83.78,0,0,0,26.61-61.3V141.94C227.76,141.43,227.78,141,227.78,140.57Z"/>
  <animate id="hand-up" xlink:href="#hand" begin="indefinite" fill="freeze" attributeName="d" dur="500ms" to="M227.52,70.07a21,21,0,0,0-21-21A20.78,20.78,0,0,0,196,51.91V39.72c0-.51.05-1,.05-1.38a21,21,0,0,0-21-21,20.78,20.78,0,0,0-10.51,2.82,21,21,0,0,0-41.67,0,20.78,20.78,0,0,0-10.59-2.87,21,21,0,0,0-21,21v65.85a29.57,29.57,0,0,0-19-7A12.44,12.44,0,0,0,60,109.65v93.7A83.8,83.8,0,0,0,88.06,266a5.51,5.51,0,0,0,.75.8q1.28,1.11,2.59,2.16V341c0,2.06,2.26,3.75,5.07,3.83h.47c2.81-.07,5.07-1.77,5.07-3.83l-.08-64.87a82.76,82.76,0,0,0,13.27,6.21,5.4,5.4,0,1,0,3.69-10.15c-1.61-.58-3.18-1.24-4.74-1.93l0-.08-.51-.14a72.36,72.36,0,0,1-17.73-11.43,5,5,0,0,0-1.1-.72,73.3,73.3,0,0,1-24.35-54.58v-76.3l0-17.41a1.91,1.91,0,0,1,1.91-1.91,19,19,0,0,1,19,19v40.83a5.26,5.26,0,0,0,5.25,5.26h0A42.4,42.4,0,0,1,139,215.19a5.26,5.26,0,0,0,10.51,0,52.83,52.83,0,0,0-47.61-52.62V38.34a10.45,10.45,0,1,1,20.91,0,11.07,11.07,0,0,1-.08,1.25v93.63a5.26,5.26,0,0,0,5.17,5.26l.17,0,.1,0a5.26,5.26,0,0,0,5.21-5.26V23.36c0-.24,0-.49,0-.73a10.45,10.45,0,0,1,20.91,0c0,.26,0,.51,0,.8V37c0,.45,0,.9,0,1.36s0,.85,0,1.19v93.69a5.26,5.26,0,1,0,10.51,0V37.43a10.45,10.45,0,0,1,20.87.9c0,.25,0,.49,0,.79V142a5.27,5.27,0,0,0,5.07,5.25h.46a5.27,5.27,0,0,0,5.07-5.25V70.82c0-.25,0-.5,0-.75a10.45,10.45,0,1,1,20.91,0c0,.25,0,.5,0,.79V203.35a73.25,73.25,0,0,1-22.66,53,5.29,5.29,0,0,0-1.16.79,72.18,72.18,0,0,1-24.55,15.07,5.4,5.4,0,0,0,1.86,10.47,5.32,5.32,0,0,0,1.85-.33,82.8,82.8,0,0,0,13.23-6.22V341c0,2.06,2.26,3.75,5.07,3.83h.46c2.81-.07,5.07-1.77,5.07-3.83L196,268.89c1.52-1.23,3-2.5,4.47-3.84.13-.12.23-.27.35-.4a83.78,83.78,0,0,0,26.61-61.3V71.44C227.5,70.93,227.52,70.49,227.52,70.07Z"/>
</svg>
