<svg xmlns="http://www.w3.org/2000/svg" viewBox="0 0 360 319.05" id="icon-help-hand"><defs><style>.path-primary{fill:#fff}</style></defs><title>Helping Hand</title><path class="path-primary" d="M186.94 284.85a9.79 9.79 0 0 0-13.82 0 50.09 50.09 0 0 1-35.65 14.77h-.25l.06-67.22c1.55.49 3.11 1 4.68 1.37a10.17 10.17 0 0 0 2.34.3 9.76 9.76 0 0 0 2.34-19.24 47.83 47.83 0 0 1-12.79-5.25 9.37 9.37 0 0 0-2.61-1.63 47.47 47.47 0 0 1-20.76-39.41l.1-91.26a5.31 5.31 0 0 1 10.62 0v52.13a9.76 9.76 0 1 0 19.51 0V43.97a5.3 5.3 0 0 1 5.31-5.31A5.32 5.32 0 0 1 151.4 44l-.06 75.56a9.76 9.76 0 0 0 9.74 9.77 9.75 9.75 0 0 0 9.55-7.79 8.93 8.93 0 0 0 .2-2l.08-94.72a5.32 5.32 0 0 1 10.64 0l-.08 94.7a9.8 9.8 0 0 0 7.78 9.58 9.19 9.19 0 0 0 2 .19 9.77 9.77 0 0 0 9.77-9.74l.08-75.78a5.3 5.3 0 0 1 10.61 0l-.08 92.46c-13.9 6-42.31 22-43.21 53.31a9.76 9.76 0 0 0 9.47 10h.3a9.75 9.75 0 0 0 9.75-9.47c.76-26.59 36.52-37.91 36.84-38a9.81 9.81 0 0 0 6.94-9.33v-37.12a8.91 8.91 0 0 1 8.92-8.9 8.75 8.75 0 0 1 6.29 2.61 8.85 8.85 0 0 1 2.58 6.32V143l.13 25.74a48 48 0 0 1-20.87 39.37 9.63 9.63 0 0 0-2.7 1.74 45.74 45.74 0 0 1-10.17 4.44l-21.9 5.52a9.76 9.76 0 0 0 2.4 19.21 10.39 10.39 0 0 0 2.39-.3l22.21-5.66c.57-.16 1.11-.38 1.69-.57v67.19h-.08a50.14 50.14 0 0 1-35.67-14.83zm170.21 0a9.76 9.76 0 0 0-13.8 0 50.39 50.39 0 0 1-71.29 0 9.79 9.79 0 0 0-13.82 0 50.6 50.6 0 0 1-16.06 10.83v-73.44a67.7 67.7 0 0 0 26.88-53.61L269 142.8v-37.06a28.43 28.43 0 0 0-28.41-28.49A28.37 28.37 0 0 0 231.1 79V43.87A24.87 24.87 0 0 0 206.31 19a24.52 24.52 0 0 0-5.84.76 24.83 24.83 0 0 0-48.63.14 23.77 23.77 0 0 0-5.8-.77H146a24.81 24.81 0 0 0-24.81 24.79V53a24.26 24.26 0 0 0-5.31-.6A24.85 24.85 0 0 0 91 77.2l-.11 91.27a67.07 67.07 0 0 0 26.81 53.74l-.06 73.3a50.44 50.44 0 0 1-15.89-10.75 9.76 9.76 0 0 0-13.8 0 50.42 50.42 0 0 1-71.32 0 9.76 9.76 0 0 0-13.8 13.8 69.8 69.8 0 0 0 92 6 69.59 69.59 0 0 0 85.12 0 69.59 69.59 0 0 0 85.12 0 69.76 69.76 0 0 0 92-6 9.63 9.63 0 0 0 .08-13.71z"/></svg>