<svg xmlns="http://www.w3.org/2000/svg" viewBox="0 0 350.52 360"><defs><style>.path-primary{fill:#fff}</style></defs><title>Umbrella</title><path class="path-primary" d="M184.42 24.9V9.13a9.13 9.13 0 0 0-18.26 0V24.9C75.06 29.59 2.35 103.75 0 195.42a29.09 29.09 0 0 1 24.77-14 29 29 0 0 1 24.7 14h1.17a28.69 28.69 0 0 1 49.34 0h1.18a28.75 28.75 0 0 1 49.4 0h1.17a29.45 29.45 0 0 1 16.55-12.84v129.53a51.45 51.45 0 0 0 102.78-3.58 51.06 51.06 0 0 0-1.46-12.21 9.13 9.13 0 0 0-17.73 4.34 32.85 32.85 0 0 1 .95 7.87 33.18 33.18 0 0 1-66.28 2.47V183.28a29.45 29.45 0 0 1 14.55 12.14h1.18a28.75 28.75 0 0 1 49.4 0h1.14a28.75 28.75 0 0 1 49.4 0h1.18a28.73 28.73 0 0 1 47.12-3.26C346.43 102 274.42 29.52 184.42 24.9z"/></svg>