<svg xmlns="http://www.w3.org/2000/svg" viewBox="0 0 360 360">
  <defs>
    <style>
      .path-primary { fill: #fff; }
    </style>
  </defs>
  <title>Umbrella</title>
  <path id="umbrella" class="path-primary nt" d="M239.31,301.5H234.1c-7.21-17.94,10.39,3.5-16.16,3.5s-9-17.94-16.16,0h-4.92c-6.32-15.72,15.71,1.23-6.51-1.5v11a33.1,33.1,0,1,0,66.21,0,6.21,6.21,0,0,1,12.41,0,45.52,45.52,0,0,1-91,0V303c-25.33.87,3.55-15.31-3.39,2h-4.92c-7.21-17.94,10.39,0-16.16,0s-9-21.44-16.16-3.5h-6.61c0-74.13,47.24-169,47.24-283.53V6.21a6.21,6.21,0,1,1,12.41,0v12C190.34,133,239.31,229.47,239.31,301.5Z"/>
  <animate id="umbrella-open" xlink:href="#umbrella" begin="indefinite" fill="freeze" attributeName="d" dur="300ms" to="M359.31,163.45H354.1c-7.21-17.94-29.61-31-56.16-31s-49,13.09-56.16,31h-4.92c-6.32-15.72-24.29-27.71-46.51-30.44V314.48a33.1,33.1,0,1,0,66.21,0,6.21,6.21,0,0,1,12.41,0,45.52,45.52,0,0,1-91,0v-182c-25.33.87-46.45,13.63-53.39,30.95h-4.92c-7.21-17.94-29.61-31-56.16-31s-49,13.09-56.16,31H.69C.69,89.32,79.86,19,177.93,18V6.21a6.21,6.21,0,1,1,12.41,0v12C284.56,22.93,359.31,91.41,359.31,163.45Z"/>
  <animate id="umbrella-closed" xlink:href="#umbrella" begin="indefinite" fill="freeze" attributeName="d" dur="300ms" to="M239.31,301.5H234.1c-7.21-17.94,10.39,3.5-16.16,3.5s-9-17.94-16.16,0h-4.92c-6.32-15.72,15.71,1.23-6.51-1.5v11a33.1,33.1,0,1,0,66.21,0,6.21,6.21,0,0,1,12.41,0,45.52,45.52,0,0,1-91,0V303c-25.33.87,3.55-15.31-3.39,2h-4.92c-7.21-17.94,10.39,0-16.16,0s-9-21.44-16.16-3.5h-6.61c0-74.13,47.24-169,47.24-283.53V6.21a6.21,6.21,0,1,1,12.41,0v12C190.34,133,239.31,229.47,239.31,301.5Z"/>
  <script>
    umbrellaOpen = document.getElementById( 'umbrella-open' );
    $( '#big-icon-umbrella' ).mouseenter(function() {
      umbrellaOpen.beginElement();
    });

    umbrellaClosed = document.getElementById( 'umbrella-closed' );
    $( '#big-icon-umbrella' ).mouseleave(function() {
      umbrellaClosed.beginElement();
    });
  </script>
</svg>
