<svg xmlns="http://www.w3.org/2000/svg" viewBox="0 0 360 310.54"><defs><style>.path-dark-gray{fill:#7d7e7f}.path-blue{fill:#323a45}.path-red{fill:#981d20}.path-light-gray{fill:#afb0b5}</style></defs><title>Best Practices</title><path class="path-dark-gray" d="M290.29 54.09H172.44A51.29 51.29 0 0 1 153.64 82h136.65a13.94 13.94 0 0 0 0-27.88zM290.29 164.27H174.14v27.88h116.15a13.94 13.94 0 0 0 0-27.88z"/><path class="path-blue" d="M81.92 110.18h81.98v81.98H81.92z"/><path class="path-dark-gray" d="M346.06 110.18H174.14v27.88h171.92a13.94 13.94 0 1 0 0-27.88z"/><path class="path-red" d="M122.91 0a41 41 0 1 1-41 41 41 41 0 0 1 41-41"/><path class="path-dark-gray" d="M346.06 0H153.64a51.3 51.3 0 0 1 18.8 27.88h173.62a13.94 13.94 0 1 0 0-27.88zM44.27 19l-6.92-5.6a1.64 1.64 0 0 0-2.31.25L16 37l-7.4-6.67a1.94 1.94 0 0 0-2.31 0L.38 37a1.94 1.94 0 0 0 0 2.31l15.91 14.37a1.64 1.64 0 0 0 2.31-.26l5.64-6.92 20.52-25.4c.52-.27.24-1.3-.49-2.1zM31.69 269.55l10.05-10.05a3.18 3.18 0 0 0 0-4L36 249.75a3.18 3.18 0 0 0-4 0L21.93 259.8l-10.05-10.05a3.18 3.18 0 0 0-4 0l-5.78 5.79a3.18 3.18 0 0 0 0 4l10.05 10.05L2.13 279.6a3.18 3.18 0 0 0 0 4l5.78 5.79a3.19 3.19 0 0 0 4 0l10.02-10.09L32 289.36a3.19 3.19 0 0 0 4 0l5.78-5.79a3.18 3.18 0 0 0 0-4zM31.69 150.92l10.05-10.05a3.18 3.18 0 0 0 0-4L36 131.11a3.19 3.19 0 0 0-4 0l-10.07 10.06-10.05-10.06a3.19 3.19 0 0 0-4 0l-5.75 5.79a3.18 3.18 0 0 0 0 4l10.05 10.05L2.13 161a3.18 3.18 0 0 0 0 4l5.78 5.79a3.18 3.18 0 0 0 4 0l10.05-10.05L32 170.72a3.18 3.18 0 0 0 4 0l5.78-5.79a3.18 3.18 0 0 0 0-4z"/><path class="path-light-gray" d="M81.92 228.56l41 81.98 40.97-81.98H81.92z"/><path class="path-dark-gray" d="M290.29 282.65H146.08l-13.94 27.88h158.15a13.94 13.94 0 0 0 0-27.88zM346.06 228.56H173.12l-13.94 27.88h186.88a13.94 13.94 0 1 0 0-27.88z"/></svg>