<svg xmlns="http://www.w3.org/2000/svg" viewBox="0 0 360 251.72"><defs><style>.path-blue{fill:#323a45}.path-dark-gray{fill:#7d7e7f}.path-light-gray{fill:#afb0b5}.path-red{fill:#981d20;opacity:.9}</style></defs><title>Careers</title><path class="path-blue" d="M168.53 0h76.05v78.76h-76.05z"/><path class="path-blue" d="M168.53 0h76.05v78.76h-76.05z"/><path class="path-blue" d="M206.55 1.88c-50.08 0-28.82 53.91-46.46 76.88H253c-17.63-22.97 3.62-76.88-46.45-76.88z"/><path class="path-dark-gray" d="M225.06 93.84c18.52 0 21-7.23 38.61-7.23A24.3 24.3 0 0 1 256 82h-98.89a24.3 24.3 0 0 1-7.67 4.64c18.19-.62 20.38 6.92 38.9 6.92 0 5 2.83 14.74-12.24 23.54a25.16 25.16 0 0 0 4.71 6.59c6 7.23 14.43 12.24 23.85 12.24 12.86 0 25.11-8.8 31.69-19.14-14.12-8.79-11.29-18.24-11.29-22.95z"/><path class="path-light-gray" d="M256.85 149.4l41.81 64.79 41.79-64.79h-83.6z"/><path class="path-red" d="M131.11 46.7c0 25.79-20.19 46.7-45.09 46.7S40.93 72.49 40.93 46.7 61.12 0 86 0s45.09 20.91 45.09 46.7"/><path class="path-dark-gray" d="M118.59 107l-2.19-2.52s-11.91 17.3-19.4 57.79l-6.28-47.39 4.4-6.9c20.04-4.7 17.52-11.98 17.52-11.98h-2a51.94 51.94 0 0 1-49.17 0h-.25s-2.55 7.28 17.54 12l4.4 6.9-6.28 47.39c-7.52-40.18-19.45-57.75-19.45-57.75l-2.2 2.46c-5.33 4.07-31.69 12.55-44.56 17.58 0 0-10.68 6.28-10.68 127.11h124.6c0-14.12-.93-31.38-1.88-48-.62-15.69-1.57-30.77-2.55-42.35 0-28.87 20.71-42.06 21.66-42.68l1.57-1h.31c-10.98-4.03-21.97-8.11-25.11-10.66z"/><path class="path-dark-gray" d="M236.72 128.28a25.92 25.92 0 0 0 15.82-5.09 114.91 114.91 0 0 1-10.87-3.92c-7.85 12.24-22 22.59-37.35 22.59-11.93 0-22.28-6.28-29.51-15.38a35.71 35.71 0 0 1-4.71-7.23c-2.82 1.26-6.28 2.52-10 3.76a105.1 105.1 0 0 1-12.55 3.14s-17.26 10.67-17.26 34.52c0 24.16 3.45 34.21 3.45 90.39h144.7c0-4.4 0-8.5.06-12.36-50.89-43.7-41.78-110.42-41.78-110.42z"/><path class="path-dark-gray" d="M300.82 234.7l-.93.48-.93-.48c-57.17-29.73-49.18-93.44-49.09-94.08l.24-1.74h1.76c16.82 0 20.35-21.33 20.39-21.55l.21-1.39 1.38-.28a137.49 137.49 0 0 1 24.82-2.19h2.42a138.29 138.29 0 0 1 24.82 2.19l1.37.28.22 1.39c.14.88 3.62 21.55 20.39 21.55h1.76l.24 1.74c.11.64 8.11 64.38-49.07 94.08zm58.61-101.8c-23.23 0-27.74-28.82-27.74-28.82-15.12-3-31.8-2.67-31.8-2.67s-16.68-.33-31.8 2.67c0 0-4.52 28.82-27.74 28.82 0 0-10.6 77.61 59.54 114.09C370 210.52 359.43 132.9 359.43 132.9z"/></svg>