<?xml version="1.0" standalone="no"?>
<!DOCTYPE svg PUBLIC "-//W3C//DTD SVG 20010904//EN"
 "http://www.w3.org/TR/2001/REC-SVG-20010904/DTD/svg10.dtd">
<svg version="1.0" xmlns="http://www.w3.org/2000/svg"
 width="700.000000pt" height="700.000000pt" viewBox="0 0 700.000000 700.000000"
 preserveAspectRatio="xMidYMid meet">
<metadata>
Created by potrace 1.11, written by Peter Selinger 2001-2013
</metadata>
<g transform="translate(0.000000,700.000000) scale(0.100000,-0.100000)"
fill="#000000" stroke="none">
<path d="M0 5115 l0 -1885 3500 0 3500 0 0 270 0 270 -1750 0 -1750 0 0 270 0
270 1750 0 1750 0 0 270 0 270 -1750 0 -1750 0 0 265 0 265 1750 0 1750 0 0
270 0 270 -1750 0 -1750 0 0 270 0 270 1750 0 1750 0 0 270 0 270 -3500 0
-3500 0 0 -1885z m1539 1144 l28 -84 93 -5 93 -5 -75 -54 -76 -54 29 -85 c16
-47 27 -87 25 -89 -2 -3 -36 18 -74 46 -38 28 -73 51 -77 51 -4 0 -39 -23 -77
-51 -38 -28 -72 -49 -74 -46 -2 2 9 42 25 89 l29 85 -76 54 -75 54 94 5 94 5
28 88 c16 49 31 87 33 84 2 -2 17 -42 33 -88z m-915 -4 l27 -85 97 0 96 0 -77
-56 c-56 -40 -76 -61 -73 -72 39 -128 47 -154 44 -158 -2 -2 -35 19 -72 46
-38 28 -72 50 -76 50 -4 0 -38 -22 -76 -50 -37 -27 -70 -48 -72 -46 -3 4 5 30
44 158 3 11 -17 32 -73 72 l-77 56 96 0 97 0 27 85 c16 47 31 85 34 85 3 0 18
-38 34 -85z m1830 0 l27 -85 97 0 96 0 -77 -56 c-56 -40 -76 -61 -73 -72 39
-128 47 -154 44 -158 -2 -2 -35 19 -72 46 -38 28 -72 50 -76 50 -4 0 -38 -22
-76 -50 -37 -27 -70 -48 -72 -46 -2 2 8 41 22 86 14 44 26 83 26 85 0 2 -35
29 -77 59 l-77 56 96 0 97 0 27 85 c16 47 31 85 34 85 3 0 18 -38 34 -85z
m-1373 -953 l26 -77 99 -5 98 -5 -77 -55 c-42 -30 -77 -60 -77 -66 0 -6 11
-44 25 -84 14 -40 25 -77 25 -82 0 -5 -28 11 -62 37 -96 70 -87 69 -153 18
-99 -74 -97 -74 -68 20 14 45 27 85 29 89 3 4 -31 33 -73 65 l-78 58 97 3 97
3 27 84 c16 46 30 82 33 79 4 -3 18 -40 32 -82z m1037 -84 l97 -3 -78 -58
c-42 -32 -76 -61 -73 -65 2 -4 15 -44 29 -89 29 -94 31 -94 -68 -20 -66 51
-57 52 -152 -18 -35 -26 -63 -42 -63 -37 0 5 11 42 25 82 14 40 25 78 25 84 0
6 -35 36 -77 66 l-77 55 98 5 99 5 24 70 c13 39 26 77 29 85 4 9 18 -20 36
-72 l29 -87 97 -3z m793 84 l26 -77 99 -5 98 -5 -77 -55 c-42 -30 -77 -60 -77
-66 0 -6 11 -44 25 -84 14 -40 25 -77 25 -82 0 -5 -28 11 -62 37 -96 70 -87
69 -153 18 -99 -74 -97 -75 -65 28 l28 90 -76 57 -77 57 97 3 97 3 27 84 c16
46 30 82 33 79 4 -3 18 -40 32 -82z m-1375 -952 l27 -90 100 0 100 0 -77 -56
c-42 -30 -76 -61 -76 -68 0 -7 11 -46 25 -86 14 -40 25 -77 25 -82 0 -5 -34
16 -75 47 -41 30 -77 55 -80 55 -3 0 -39 -25 -80 -55 -41 -31 -75 -52 -75 -47
0 5 11 42 25 82 14 40 25 79 25 86 0 7 -34 38 -76 68 l-77 56 100 0 100 0 27
90 c15 50 29 90 31 90 2 0 16 -40 31 -90z m-913 -5 l28 -84 96 -3 96 -3 -77
-54 c-42 -30 -76 -57 -76 -61 0 -3 13 -45 29 -93 18 -52 25 -84 17 -80 -7 5
-42 30 -79 56 l-67 49 -67 -49 c-37 -26 -72 -51 -79 -56 -8 -4 -1 28 17 80 16
48 29 90 29 93 0 4 -34 31 -76 61 l-77 54 96 3 96 3 28 84 c15 47 30 85 33 85
3 0 18 -38 33 -85z m1830 0 l28 -84 96 -3 96 -3 -77 -54 c-42 -30 -76 -57 -76
-61 0 -3 13 -45 29 -93 18 -52 25 -84 17 -80 -7 5 -42 30 -79 56 l-67 49 -67
-49 c-37 -26 -72 -51 -79 -56 -8 -4 -1 28 17 80 16 48 29 90 29 93 0 4 -34 31
-76 61 l-77 54 96 3 96 3 28 84 c15 47 30 85 33 85 3 0 18 -38 33 -85z"/>
<path d="M0 2420 l0 -270 3500 0 3500 0 0 270 0 270 -3500 0 -3500 0 0 -270z"/>
<path d="M0 1350 l0 -270 3500 0 3500 0 0 270 0 270 -3500 0 -3500 0 0 -270z"/>
<path d="M0 270 l0 -270 3500 0 3500 0 0 270 0 270 -3500 0 -3500 0 0 -270z"/>
</g>
</svg>
