<?xml version="1.0" standalone="no"?>
<!DOCTYPE svg PUBLIC "-//W3C//DTD SVG 20010904//EN"
 "http://www.w3.org/TR/2001/REC-SVG-20010904/DTD/svg10.dtd">
<svg version="1.0" xmlns="http://www.w3.org/2000/svg"
 width="360.000000pt" height="360.000000pt" viewBox="0 0 360.000000 360.000000"
 preserveAspectRatio="xMidYMid meet">
<metadata>
Created by potrace 1.11, written by Peter Selinger 2001-2013
</metadata>
<g transform="translate(0.000000,360.000000) scale(0.100000,-0.100000)"
fill="#000000" stroke="none">
<path d="M1515 3593 c-58 -15 -197 -64 -250 -89 -177 -83 -319 -194 -464 -364
l-55 -65 274 -3 c150 -1 277 1 281 5 4 5 19 48 34 97 44 148 132 316 204 393
31 33 27 38 -24 26z"/>
<path d="M2055 3573 c79 -83 153 -223 210 -396 l33 -102 277 -3 278 -2 -29 37
c-85 112 -199 220 -316 299 -126 84 -316 166 -441 188 l-39 7 27 -28z"/>
<path d="M1751 3539 c-45 -14 -120 -91 -163 -169 -36 -66 -100 -222 -112 -272
l-6 -28 330 0 c181 0 330 2 330 3 0 20 -51 153 -90 233 -53 110 -121 194 -181
224 -42 22 -57 23 -108 9z"/>
<path d="M684 2912 c-28 -3 -34 -9 -57 -70 -53 -135 -112 -391 -94 -408 6 -7
666 -8 673 -2 3 4 5 19 19 168 3 36 8 76 10 90 2 14 7 50 10 80 4 30 10 74 15
98 6 35 5 42 -9 43 -76 2 -543 3 -567 1z"/>
<path d="M1449 2912 c-25 -3 -28 -9 -38 -65 -18 -109 -28 -192 -36 -319 l-6
-98 53 -1 c59 0 780 0 789 0 17 2 -2 248 -35 458 -1 7 -5 15 -8 19 -7 6 -670
12 -719 6z"/>
<path d="M2342 2902 c-5 -1 -3 -40 5 -85 12 -73 19 -135 28 -247 2 -19 4 -61
4 -92 l1 -58 339 0 c187 0 342 3 344 8 4 6 -6 96 -17 156 -17 90 -62 227 -92
280 l-23 41 -291 0 c-159 0 -293 -1 -298 -3z"/>
<path d="M534 2193 c8 -85 13 -114 32 -183 29 -104 76 -218 95 -230 4 -3 140
-5 301 -5 l293 0 -1 35 c0 19 -3 53 -7 75 -18 121 -26 208 -26 298 l-1 77
-346 0 -347 0 7 -67z"/>
<path d="M1386 2153 c2 -100 9 -182 19 -231 2 -11 7 -42 10 -69 13 -85 -21
-78 394 -78 l369 0 8 45 c3 25 8 54 10 65 11 73 24 194 30 278 l6 97 -425 0
-424 0 3 -107z"/>
<path d="M2389 2238 c-5 -102 -13 -203 -30 -343 -12 -101 -12 -96 -10 -110 1
-7 106 -10 301 -10 l300 0 25 65 c45 119 95 326 95 396 l0 24 -340 0 -340 0
-1 -22z"/>
<path d="M757 1606 c21 -37 112 -142 167 -194 171 -160 401 -280 610 -318 33
-6 32 -3 -29 71 -57 71 -119 194 -165 331 l-39 119 -276 1 c-204 2 -273 -1
-268 -10z"/>
<path d="M1470 1591 c41 -134 119 -292 177 -359 44 -52 109 -92 149 -92 83 1
168 79 237 219 34 68 97 233 97 254 0 2 -150 4 -334 4 l-334 0 8 -26z"/>
<path d="M2264 1506 c-46 -138 -113 -271 -172 -345 -25 -31 -50 -59 -56 -63
-19 -13 11 -9 92 12 254 65 505 226 661 424 26 33 51 66 54 72 5 8 -70 11
-268 12 l-274 0 -37 -112z"/>
<path d="M1758 1039 c-10 -6 -13 -67 -13 -255 l0 -247 -41 -14 c-56 -19 -118
-74 -144 -128 l-22 -45 -503 0 -503 0 -22 45 c-80 165 -324 194 -446 51 -120
-140 -59 -372 114 -430 124 -43 269 10 327 118 l20 36 510 0 510 0 27 -44 c83
-138 280 -168 405 -61 22 19 48 50 57 70 l17 35 512 0 512 0 20 -36 c66 -122
247 -171 369 -99 155 91 183 299 56 425 -128 129 -353 95 -430 -65 l-22 -45
-503 0 -504 0 -23 46 c-27 55 -86 109 -137 125 -20 7 -38 15 -41 20 -3 4 -5
116 -5 249 0 133 -3 244 -7 246 -14 9 -78 10 -90 3z"/>
</g>
</svg>
