<?xml version="1.0" standalone="no"?>
<!DOCTYPE svg PUBLIC "-//W3C//DTD SVG 20010904//EN"
 "http://www.w3.org/TR/2001/REC-SVG-20010904/DTD/svg10.dtd">
<svg version="1.0" xmlns="http://www.w3.org/2000/svg"
 width="700.000000pt" height="700.000000pt" viewBox="0 0 700.000000 700.000000"
 preserveAspectRatio="xMidYMid meet">
<metadata>
Created by potrace 1.11, written by Peter Selinger 2001-2013
</metadata>
<g transform="translate(0.000000,700.000000) scale(0.100000,-0.100000)"
fill="#000000" stroke="none">
<path d="M2618 5169 c4 -4 55 -43 114 -87 298 -225 542 -561 661 -912 51 -151
55 -169 92 -375 38 -213 18 -564 -46 -798 -10 -40 -21 -83 -24 -96 -11 -44
-94 -245 -134 -322 -89 -172 -193 -317 -328 -460 -89 -93 -258 -236 -314 -265
-17 -8 -29 -18 -26 -20 10 -10 2220 -5 2226 4 8 13 6 3320 -2 3328 -3 3 -505
6 -1116 7 -610 1 -1107 -1 -1103 -4z"/>
<path d="M5329 5172 l-205 -2 0 -1450 c0 -798 1 -1450 2 -1450 1 0 13 17 25
38 13 20 27 42 31 47 5 6 35 51 66 100 113 177 266 414 422 655 88 135 182
281 210 325 28 44 98 152 155 240 57 88 144 223 193 300 49 77 169 264 267
415 174 271 217 336 320 495 29 44 82 126 118 183 l66 102 -167 0 c-92 0 -421
1 -732 3 -311 1 -658 1 -771 -1z"/>
<path d="M1360 5150 c-424 -75 -780 -298 -1038 -652 -40 -54 -142 -221 -142
-232 0 -3 -13 -33 -29 -68 -59 -125 -111 -299 -127 -423 -3 -27 -10 -72 -14
-99 -8 -53 -6 -368 2 -382 3 -5 9 -35 13 -68 9 -81 40 -205 77 -306 206 -565
681 -971 1249 -1068 120 -20 367 -27 450 -12 24 4 63 11 87 14 156 21 442 136
597 242 138 93 292 239 386 364 27 36 52 70 57 75 33 41 113 189 163 300 34
78 89 260 78 260 -1 0 3 9 8 20 11 20 28 123 39 240 12 122 7 325 -10 411 -2
12 -7 37 -10 55 -3 19 -8 43 -11 54 -2 11 -11 45 -18 75 -22 86 -55 176 -103
278 -103 220 -222 378 -428 567 -20 19 -150 112 -196 141 -102 64 -331 164
-409 179 -9 2 -35 8 -58 14 -23 6 -61 14 -85 17 -24 3 -59 9 -80 14 -66 14
-347 8 -448 -10z"/>
</g>
</svg>
