<?xml version="1.0" standalone="no"?>
<!DOCTYPE svg PUBLIC "-//W3C//DTD SVG 20010904//EN"
 "http://www.w3.org/TR/2001/REC-SVG-20010904/DTD/svg10.dtd">
<svg version="1.0" xmlns="http://www.w3.org/2000/svg"
 width="700.000000pt" height="700.000000pt" viewBox="0 0 700.000000 700.000000"
 preserveAspectRatio="xMidYMid meet">
<metadata>
Created by potrace 1.11, written by Peter Selinger 2001-2013
</metadata>
<g transform="translate(0.000000,700.000000) scale(0.100000,-0.100000)"
fill="#000000" stroke="none">
<path d="M2618 5169 c4 -4 55 -43 114 -87 298 -225 542 -561 661 -912 51 -151
55 -169 92 -375 38 -213 18 -564 -46 -798 -10 -40 -21 -83 -24 -96 -11 -44
-94 -245 -134 -322 -89 -172 -193 -317 -328 -460 -89 -93 -258 -236 -314 -265
-17 -8 -29 -18 -26 -20 10 -10 2220 -5 2226 4 8 13 6 3320 -2 3328 -3 3 -505
6 -1116 7 -610 1 -1107 -1 -1103 -4z"/>
<path d="M5329 5172 l-205 -2 0 -1450 c0 -798 1 -1450 2 -1450 1 0 13 17 25
38 13 20 27 42 31 47 5 6 35 51 66 100 113 177 266 414 422 655 88 135 182
281 210 325 28 44 98 152 155 240 57 88 144 223 193 300 49 77 169 264 267
415 174 271 217 336 320 495 29 44 82 126 118 183 l66 102 -167 0 c-92 0 -421
1 -732 3 -311 1 -658 1 -771 -1z"/>
<path d="M1360 5150 c-424 -75 -780 -298 -1038 -652 -40 -54 -142 -221 -142
-232 0 -3 -13 -33 -29 -68 -59 -125 -111 -299 -127 -423 -3 -27 -10 -72 -14
-99 -8 -53 -6 -368 2 -382 3 -5 9 -35 13 -68 9 -81 40 -205 77 -306 206 -565
681 -971 1249 -1068 120 -20 367 -27 450 -12 24 4 63 11 87 14 156 21 442 136
597 242 138 93 292 239 386 364 27 36 52 70 57 75 33 41 113 189 163 300 34
78 89 260 78 260 -1 0 3 9 8 20 11 20 28 123 39 240 12 122 7 325 -10 411 -2
12 -7 37 -10 55 -3 19 -8 43 -11 54 -2 11 -11 45 -18 75 -22 86 -55 176 -103
278 -103 220 -222 378 -428 567 -20 19 -150 112 -196 141 -102 64 -331 164
-409 179 -9 2 -35 8 -58 14 -23 6 -61 14 -85 17 -24 3 -59 9 -80 14 -66 14
-347 8 -448 -10z"/>
</g>
</svg>
 0
-424 0 3 -107z"/>
<path d="M2389 2238 c-5 -102 -13 -203 -30 -343 -12 -101 -12 -96 -10 -110 1
-7 106 -10 301 -10 l300 0 25 65 c45 119 95 326 95 396 l0 24 -340 0 -340 0
-1 -22z"/>
<path d="M757 1606 c21 -37 112 -142 167 -194 171 -160 401 -280 610 -318 33
-6 32 -3 -29 71 -57 71 -119 194 -165 331 l-39 119 -276 1 c-204 2 -273 -1
-268 -10z"/>
<path d="M1470 1591 c41 -134 119 -292 177 -359 44 -52 109 -92 149 -92 83 1
168 79 237 219 34 68 97 233 97 254 0 2 -150 4 -334 4 l-334 0 8 -26z"/>
<path d="M2264 1506 c-46 -138 -113 -271 -172 -345 -25 -31 -50 -59 -56 -63
-19 -13 11 -9 92 12 254 65 505 226 661 424 26 33 51 66 54 72 5 8 -70 11
-268 12 l-274 0 -37 -112z"/>
<path d="M1758 1039 c-10 -6 -13 -67 -13 -255 l0 -247 -41 -14 c-56 -19 -118
-74 -144 -128 l-22 -45 -503 0 -503 0 -22 45 c-80 165 -324 194 -446 51 -120
-140 -59 -372 114 -430 124 -43 269 10 327 118 l20 36 510 0 510 0 27 -44 c83
-138 280 -168 405 -61 22 19 48 50 57 70 l17 35 512 0 512 0 20 -36 c66 -122
247 -171 369 -99 155 91 183 299 56 425 -128 129 -353 95 -430 -65 l-22 -45
-503 0 -504 0 -23 46 c-27 55 -86 109 -137 125 -20 7 -38 15 -41 20 -3 4 -5
116 -5 249 0 133 -3 244 -7 246 -14 9 -78 10 -90 3z"/>
</g>
</svg>
