<svg xmlns="http://www.w3.org/2000/svg" viewBox="0 0 360 360"><title>About Cyber.gov</title><path class="path-blue" d="M184.26 148a14.61 14.61 0 1 1 14.61-14.61A14.62 14.62 0 0 1 184.26 148zm-12.47 92.28c-29.88-5.21-5.69-40-5.69-40 24.89-41-7.36-31.25-7.36-31.25 28.39-26.38 36.34-3.26 36.34-3.26 5.94 7-16.34 54.94-16.34 54.94-5 11.45 18 9.21 18 9.21-9.91 14.45-24.95 10.39-24.95 10.39zM180 75a105 105 0 1 0 105 105A105.15 105.15 0 0 0 180 75z"/><path class="path-red" d="M180 340.71c-88.6 0-160.7-72.08-160.7-160.71S91.4 19.29 180 19.29 340.7 91.41 340.7 180 268.64 340.71 180 340.71zM180 0a180 180 0 0 0 0 360c99.39 0 180-80.59 180-180S279.4 0 180 0z"/></svg>