<svg xmlns="http://www.w3.org/2000/svg" viewBox="0 0 360 360"><title>Agency Performance</title><path class="path-light-gray" d="M190.06 100.53a12.84 12.84 0 1 0-22.56 2.19 12.84 12.84 0 0 0 22.56-2.19zm-77.93 2.35c-14.11 9.53 0 30.73 14.25 21.35a12.84 12.84 0 1 0-14.25-21.35zm-40.6 107.19c-15.28 3-13.09 25.48 2.48 25.44a13.19 13.19 0 0 0 2.51-.25 12.84 12.84 0 0 0-5-25.2zm20.37-43.88c4.95-11.74-8.37-22.74-19-15.67S67.38 174.1 80.12 174a12.84 12.84 0 0 0 11.78-7.81zM270 220a12.84 12.84 0 1 0 15-10.27A12.84 12.84 0 0 0 270 220z"/><path class="path-blue" d="M272.51 151.43l-74.6 19.29a38.87 38.87 0 1 0 18.44 41.84L281 171.2l.15-.15c10.13-6.72 3.2-22.54-8.64-19.62zm-88.71 65.36a13.74 13.74 0 1 1 7.11-18.1h.09a13.78 13.78 0 0 1-7.2 18.1z"/><path class="path-dark-gray" d="M306.83 73.41a182 182 0 0 1 0 257.09 20.45 20.45 0 0 1-25.44 2.68L238.2 305a20.06 20.06 0 0 1-1.57-32.47 20.31 20.31 0 0 1 24.11-1.37L289 289.58a141.21 141.21 0 1 0-221.48 0l28.32-18.41a20.4 20.4 0 0 1 24.33 1.37 20.06 20.06 0 0 1-1.76 32.31L75.21 333a20.36 20.36 0 0 1-25.44-2.68 181.78 181.78 0 0 1 257-256.92z"/><path class="path-red" d="M248 120.61a12.84 12.84 0 1 0-17.79 3.58 12.84 12.84 0 0 0 17.79-3.58z"/></svg>