<svg xmlns="http://www.w3.org/2000/svg" viewBox="0 0 360 331.99"><title>Alerts</title><path class="path-white" d="M164.2 139.32c-.77-.1-1.5-.28-2.22-.4.4-2.45.83-4.59 1.11-6.73 1.36-10.43 0-20.44-6.39-29-11.91-15.93-28.33-22.26-46.9-23.39-18.58 1.13-35 7.48-46.91 23.39-6.39 8.56-7.74 18.56-6.39 29 .28 2.14.7 4.29 1.11 6.73-.72.14-1.48.3-2.22.4-5 .7-7.3 2.87-7.3 7.92a40.44 40.44 0 0 0 4.59 19.31c2.23 4.17 6 5.58 10.66 5.7.36 1.6.63 3.17 1.09 4.69 5.56 18 22.82 41.51 43.47 42.14h3.84c20.65-.63 37.89-24.16 43.47-42.14.47-1.5.73-3.07 1.09-4.69 4.63-.12 8.45-1.56 10.65-5.7a40.38 40.38 0 0 0 4.59-19.31c-.04-5.05-2.34-7.24-7.34-7.92zM216.91 271c-3.38-7.46-10.33-13.06-17.17-18.16a165.3 165.3 0 0 0-24-14.41l-2-1c-7.94-4.13-16.13-8.39-24.95-9.86-.2 0-.45 0-.65-.08-1 1-21.45 62.27-22.06 62.27-.65-1.66-5.8-30-6.13-32.81l-.12-1.19v-.12a2.23 2.23 0 0 1 .08-.53v-.24a5.75 5.75 0 0 1 .57-1.07l.2-.28c1.54-2.37 3.13-4.81 4.67-7.28a2.59 2.59 0 0 0 .22-1.9l-1.58-4.53-.58-1.66a189.3 189.3 0 0 1-1.86-5.36c-.2-.57-.51-.57-1.15-.87-1.92-.89-20-.87-21.37 0-.61.38-.95.32-1.15.87-.58 1.78-1.23 3.58-1.86 5.36l-.65 1.66-1.58 4.53a2.42 2.42 0 0 0 .22 1.9c1.54 2.45 3.14 4.9 4.67 7.28l.2.28a5.44 5.44 0 0 1 .56 1.07v.24a2 2 0 0 1 .08.53v.12l-.12 1.19c-.32 2.79-5.48 31.16-6.12 32.81-.59 0-21.09-61.22-22.06-62.27-.2 0-.45 0-.65.08-8.81 1.48-17 5.72-25 9.86l-2 1a166.17 166.17 0 0 0-24 14.41C12.94 257.9 6 263.52 2.61 271c-3 6.59-2.71 14.37-2.47 21.9l.08 2.34c0 1.19.08 2.79.08 4.29 0 4.2 3.14 6.12 6.23 8 .45.24.87.49 1.27.75a104.87 104.87 0 0 0 12.35 6.87C34 321.26 50 325.61 70.33 328.82c6.91 1.07 13.35 1.86 19.8 2.39s12.47.79 18.64.79h2c6.15 0 12.23-.24 18.64-.79s12.88-1.31 19.79-2.39c20.34-3.21 36.31-7.56 50.18-13.71a104.87 104.87 0 0 0 12.35-6.87 10.37 10.37 0 0 1 1.27-.75c3.1-1.86 6.27-3.78 6.23-8 0-1.52 0-3.1.08-4.29l.08-2.34c.21-7.51.49-15.29-2.48-21.86zM290 38.74q-2.21 24-4.79 48c-.95 9-6.51 12.61-15 9.18-2.11-.85-4.23-4.1-4.53-6.49-1.74-13.43-3-26.93-4.33-40.41-.59-5.79-1-11.57-1.64-17.35-.75-6.77 1.29-9.18 8.21-9.28h7c16.49-.07 16.57-.07 15.08 16.35zm-15.1 94.9c-7.24-.14-13.67-6.77-13.52-13.93s6.75-13.67 13.93-13.53 13.67 6.77 13.52 13.93-6.78 13.65-13.96 13.53zm84.91-98.92A35.41 35.41 0 0 0 345.66 7.5a36.21 36.21 0 0 0-22-7.38C288.08.12 262 .51 226.37 0c-18-.31-36.07 13.84-36.21 35.56V182.3a2.54 2.54 0 0 0 4.31 1.82c7-7 20.72-20.64 28.34-28.18l.77-.77a5.41 5.41 0 0 1 3.5-1.43q23.74-.06 47.47-.08c15.44 0 23 2 38-2.37a66.68 66.68 0 0 0 33.2-22.91 68.86 68.86 0 0 0 9.5-16.23c5.29-12.84 4.96-64.15 4.54-77.43z"/></svg>