<svg xmlns="http://www.w3.org/2000/svg" viewBox="0 0 360 360"><title>Ask the CISO</title><path class="path-white" d="M308.29 293.24a76.8 76.8 0 0 0 8.71 16.61c-7.92-1.14-15.09-3.4-21.5-7.55l-6-3.77-6 3.4a128.94 128.94 0 0 1-64.15 16.61c-64.52 0-117-45.28-117-101.14s52.46-101.14 117-101.14 117 45.28 117 101.14a93.53 93.53 0 0 1-25.67 63.76l-4.91 5.28z"/><path class="path-blue" d="M26 184.16c-16.19-17.73-26-40.37-26-64.9 0-57 52.83-103 117.73-103 44.15 0 82.65 21.13 102.64 52.83-87.54 0-159.24 60.38-166.41 137-16.6 9.81-34.33 9.43-44.91 8.29-3-.37-3.77-4.15-1.14-6A50.93 50.93 0 0 0 26 184.16z"/><path class="path-dark-gray" d="M346.42 305.64a38.15 38.15 0 0 1-12.84-14A114.79 114.79 0 0 0 360 218.47c.4-69-63-125.26-141.11-125.26-77.74 0-141.14 56.23-141.14 125.27s63.4 125.28 141.14 125.28a154.88 154.88 0 0 0 70.18-16.61 87.4 87.4 0 0 0 37.36 8.3 81.42 81.42 0 0 0 13.57-1.14 15.67 15.67 0 0 0 13.21-12.07 15.49 15.49 0 0 0-6.79-16.6zm-38.13-12.4a76.8 76.8 0 0 0 8.71 16.61c-7.92-1.14-15.09-3.4-21.5-7.55l-6-3.77-6 3.4a128.94 128.94 0 0 1-64.15 16.61c-64.52 0-117-45.28-117-101.14s52.46-101.14 117-101.14 117 45.28 117 101.14a93.53 93.53 0 0 1-25.67 63.76l-4.91 5.28z"/><path class="path-red path-transparent" d="M215.1 270.39a11.23 11.23 0 1 1 11.23-11.23 11.18 11.18 0 0 1-11.23 11.23zM240.46 207.19a46 46 0 0 1-4.16 4.81c-1 1-2.28 2.08-3.74 3.75a34.81 34.81 0 0 0-4 4 32.1 32.1 0 0 0-2.71 2.91 13.57 13.57 0 0 0-2.49 8.94v6.4h-16.18v-8.73a18.45 18.45 0 0 1 1.45-8.73 33.79 33.79 0 0 1 6-7.48l10.39-10.39a12.92 12.92 0 0 0 3.32-8.95 12.25 12.25 0 0 0-3.53-8.73 12.74 12.74 0 0 0-8.95-3.53 12.55 12.55 0 0 0-9.15 3.32 13.38 13.38 0 0 0-4.16 8.95h-17.42a29.44 29.44 0 0 1 10-20 31.91 31.91 0 0 1 21.42-7.28 30.32 30.32 0 0 1 20.79 6.86c5.4 4.57 8.11 11.23 8.11 19.55a24.82 24.82 0 0 1-4.99 14.33z"/></svg>