<svg xmlns="http://www.w3.org/2000/svg" viewBox="0 0 360 360"><title>Best Practices</title><path class="path-dark-gray" d="M114.81 108h222.71a22.48 22.48 0 1 0 0-45H114.81a22.48 22.48 0 0 0 0 45zM337.52 166H114.81a22.48 22.48 0 1 0 0 45h222.71a22.48 22.48 0 1 0 0-45zM337.52 269.29H114.81a22.48 22.48 0 0 0 0 45h222.71a22.48 22.48 0 1 0 0-45z"/><path class="path-red" d="M74.61 49.2l-11.67-9.51a2.77 2.77 0 0 0-3.9.43L27 79.47 14.5 68.23a3.27 3.27 0 0 0-3.9 0L.64 79.47a3.26 3.26 0 0 0 0 3.89l26.81 24.22a2.77 2.77 0 0 0 3.9-.43l9.5-11.66 34.6-42.82c.87-.45.44-2.19-.84-3.47z"/><path class="path-red" d="M74.61 49.2l-11.67-9.51a2.77 2.77 0 0 0-3.9.43L27 79.47 14.5 68.23a3.27 3.27 0 0 0-3.9 0L.64 79.47a3.26 3.26 0 0 0 0 3.89l26.81 24.22a2.77 2.77 0 0 0 3.9-.43l9.5-11.66 34.6-42.82c.87-.45.44-2.19-.84-3.47z"/><path class="path-blue" d="M74.61 164l-11.67-9.51a2.77 2.77 0 0 0-3.9.43L27 194.27 14.5 183a3.27 3.27 0 0 0-3.9 0l-10 11.24a3.26 3.26 0 0 0 0 3.89l26.81 24.22a2.77 2.77 0 0 0 3.9-.43l9.5-11.66 34.6-42.82c.91-.44.48-2.16-.8-3.44z"/><path class="path-light-gray" d="M51.25 291.79l14.28-14.28c1.31-1.3 1.31-3.9 0-5.63l-8.22-8.22c-1.31-1.31-3.9-1.31-5.63 0L37.4 277.94l-14.28-14.28c-1.31-1.31-3.9-1.31-5.63 0l-8.22 8.22c-1.31 1.3-1.31 3.89 0 5.63l14.28 14.28-14.28 14.28C8 307.38 8 310 9.27 311.7l8.22 8.22c1.31 1.3 3.9 1.3 5.63 0l14.28-14.28 14.28 14.28c1.31 1.3 3.9 1.3 5.63 0l8.22-8.22c1.31-1.31 1.31-3.9 0-5.63z"/></svg>