<svg xmlns="http://www.w3.org/2000/svg" viewBox="0 0 360 360"><title>Careers</title><path class="path-dark-gray" d="M145 148.1a1.44 1.44 0 0 0-1.14.37 50 50 0 0 1-65.31 0 1.4 1.4 0 0 0-1.14-.37 29.48 29.48 0 0 0-18.61 9.49c-5.7 6.07-8 14.44-7.22 22.78l8 60a24.8 24.8 0 0 0 15.19 20.13l12.91 88.09A12.73 12.73 0 0 0 100.21 360h20.89a12.73 12.73 0 0 0 12.54-11l12.92-88.09a25.75 25.75 0 0 0 15.56-20.51l8-60c.75-8.34-1.52-16.71-7.22-22.78-4.19-5.35-11.03-8.75-17.9-9.52zM301.49 157.59a29.48 29.48 0 0 0-18.61-9.49 1.45 1.45 0 0 0-1.15.37 50 50 0 0 1-65.3 0 1.4 1.4 0 0 0-1.15-.37 29.47 29.47 0 0 0-18.61 9.49c-5.7 6.07-8 14.44-7.22 22.78l8 60a24.82 24.82 0 0 0 15.19 20.13l12.92 88.09a12.72 12.72 0 0 0 12.5 11.41h20.89a12.73 12.73 0 0 0 12.54-11l12.92-88.09A25.77 25.77 0 0 0 300 240.38l8-60a25.06 25.06 0 0 0-6.51-22.79z"/><path class="path-red" d="M111.25 144.3a34.18 34.18 0 1 0-34.18-34.18 34 34 0 0 0 34.18 34.18z"/><path class="path-light-gray" d="M214.53 34.18a34.18 34.18 0 1 0-34.18 34.18 34 34 0 0 0 34.18-34.18z"/><path class="path-blue" d="M249.45 144.3a34.18 34.18 0 1 0-34.18-34.18 34 34 0 0 0 34.18 34.18z"/></svg>