<svg xmlns="http://www.w3.org/2000/svg" viewBox="0 0 360 360"><title>CISO Council</title><path class="path-dark-gray" d="M131 300.25a27.61 27.61 0 0 0-6.91 17.75v28.48a8 8 0 0 0 8 8h96.21a8 8 0 0 0 8-8V318a27.49 27.49 0 0 0-27.53-27h-9.82a3.33 3.33 0 0 0-2.59 1.23l-15.61 19.38c-.55.69-1.06.67-1.6 0l-15.61-19.34a3.21 3.21 0 0 0-2.59-1.24h-9.37a27.56 27.56 0 0 0-20.58 9.22zm-26.79-145a8 8 0 0 0 8-8.07v-28.4a27.49 27.49 0 0 0-27.53-27h-9.82A3.32 3.32 0 0 0 72.27 93l-15.61 19.51c-.55.68-1.06.66-1.6 0L39.49 93.06a3.2 3.2 0 0 0-2.59-1.23h-9.41A27.5 27.5 0 0 0 0 118.77v28.4a8 8 0 0 0 8 8zm248.84-54.39a27.51 27.51 0 0 0-20.54-9.22h-10a3.32 3.32 0 0 0-2.59 1.24l-15.69 19.68c-.55.69-1.07.67-1.6 0l-15.41-19.5a3.2 3.2 0 0 0-2.59-1.23h-9.37a27.5 27.5 0 0 0-27.49 27v28.36a8 8 0 0 0 8 8H352a8 8 0 0 0 8-8v-28.4a27.5 27.5 0 0 0-7-17.79z"/><path class="path-light-gray" d="M180.17 282.41A32.2 32.2 0 1 0 148 250.2a32.22 32.22 0 0 0 32.17 32.21z"/><path class="path-red" d="M56.1 83.21A32.2 32.2 0 1 0 23.91 51 32.22 32.22 0 0 0 56.1 83.21z"/><path class="path-blue" d="M304 83.21A32.2 32.2 0 1 0 271.77 51 32.22 32.22 0 0 0 304 83.21z"/><path class="path-light-gray" d="M241.83 284a14.11 14.11 0 0 0 19.48 4.49 154.18 154.18 0 0 0 67.86-93.85c3.6-17.82-22.58-24.12-27.49-6.62a125.81 125.81 0 0 1-55.38 76.76 14.12 14.12 0 0 0-4.47 19.22zM125.84 46.23a125 125 0 0 1 108.3 0c17.06 8.19 29.34-17.4 12.28-25.59a153.35 153.35 0 0 0-132.86 0c-17.06 8.2-4.78 33.78 12.28 25.59zM118.53 284a14.1 14.1 0 0 1-19.47 4.49 154.25 154.25 0 0 1-67.87-93.85c-3.43-17.64 22.52-23.88 27.48-6.54a125.83 125.83 0 0 0 55.51 76.48 14.13 14.13 0 0 1 4.35 19.42z"/></svg>