<svg xmlns="http://www.w3.org/2000/svg" viewBox="0 0 360 360"><title>Training and Education</title><path class="path-dark-gray" d="M299.74 301.17c-47 2.05-92.2 27.61-112.35 40.66V238.76c13.66-9.39 62.65-40.71 112.35-43.1zM60.26 195.69c49.63 2.39 98.69 33.7 112.35 43.07v103.09c-20.15-13.06-65.33-38.63-112.35-40.66zm245.39-12c-56.26 0-111.3 35.71-125.65 45.75-14.35-10-69.39-45.75-125.65-45.75a5.91 5.91 0 0 0-5.91 5.91V307a5.91 5.91 0 0 0 5.91 5.91c60.08 0 121.5 45.49 122.1 45.93a4.07 4.07 0 0 0 .67.34 3.23 3.23 0 0 0 .58.29 5.48 5.48 0 0 0 2.3.56 5.92 5.92 0 0 0 2.3-.54 3.45 3.45 0 0 0 .56-.29 6.18 6.18 0 0 0 .67-.35c.61-.47 61.93-45.93 122.1-45.93a5.91 5.91 0 0 0 5.91-5.91V189.62a5.89 5.89 0 0 0-5.89-5.91z"/><path class="path-red" d="M117.1 285.4a21.93 21.93 0 1 0-21.93-21.93 21.93 21.93 0 0 0 21.93 21.93z"/><path class="path-dark-gray" d="M82.62 175.16c50.73 11.25 94.72 43.88 95.16 44.19a3.71 3.71 0 0 0 2.21.74 3.66 3.66 0 0 0 2.21-.74c.45-.31 44.43-32.94 95.16-44.19a3.7 3.7 0 0 0 1.63-6.38 149.85 149.85 0 0 0-198 0 3.66 3.66 0 0 0-1.14 3.71 3.7 3.7 0 0 0 2.77 2.67zM73.56 249.68c0 18.37-11.92 33.26-26.6 33.26S20.34 268 20.34 249.68 32.25 216.4 47 216.4s26.6 14.91 26.6 33.28M339.66 249.68c0 18.37-11.92 33.26-26.63 33.26s-26.6-14.89-26.6-33.26S298.36 216.4 313 216.4s26.63 14.91 26.63 33.28"/><path class="path-light-gray" d="M210.15 251.16l28.3 43.85 28.28-43.85h-56.58z"/><path class="path-blue" d="M180.14 120.82a60.41 60.41 0 1 0-60.41-60.41 60.16 60.16 0 0 0 60.41 60.41z"/></svg>