<svg xmlns="http://www.w3.org/2000/svg" viewBox="0 0 360 360"><title>cyber.gov</title><path class="path-dark-gray" d="M357.37 252.48c-7.56-13.82-41.25-11.18-86.18 11.81a10.3 10.3 0 0 1 0 2.6c-1.78 13.79-30.38 19.27-102.23.71l11 1 24.41 3.1c10 .49 48.92 5.24 60.18-6.88 1.78-1.91 1.14-8.77 1-9.63-1.68-13-14.19-13.93-46.67-18.22-1.31-.17-26.81-7.56-28.1-7.73-19.34-5.33-25.53-6.7-39.45-9.8-16.16-3.59-20.39-3.05-29.13-3.1-11.6 1-17.9 1.2-26.81 4.64-35.54 11.95-51.2 22.06-84.2 40-3.76 2-7.5 4.06-11.21 6l38.24 67.55c3-1.83 6-3.76 9.2-5.8 25.33-16.42 41.64-30.62 50-29.91 9.71-.3 35.49 11 59.9 18.63 22.39 7 26.94 6.9 49.72 13.38 31.58 9.26 27.65 6 53.5-6.74 16-9.07 19.47-11.39 29.91-17.68 60.69-36.59 76.61-36.23 66.92-53.93z"/><path class="path-red" d="M202.48 23.81a88.83 88.83 0 1 0 88.83 88.83 88.92 88.92 0 0 0-88.83-88.83zm0 164.66a75.83 75.83 0 1 1 75.83-75.83 75.74 75.74 0 0 1-75.83 75.83z"/><path class="path-white" d="M202.48 188.47a75.83 75.83 0 1 1 75.83-75.83 75.74 75.74 0 0 1-75.83 75.83z"/><path class="path-blue path-transparent" d="M194.55 141.18h16.84v-20.87h20.88v-16.84h-20.88V82.59h-16.84v20.88h-20.88v16.84h20.88z"/></svg>