<svg xmlns="http://www.w3.org/2000/svg" viewBox="0 0 360 360"><title>Our Cyber Strategy</title><path class="path-dark-gray" d="M16.47 55.54A16.31 16.31 0 0 0 0 72v212.49a27.15 27.15 0 0 1 16.47-5.66h269.18a16.47 16.47 0 1 0 0-32.95h-16.47V55.54z"/><path class="path-red" d="M338.04 67.52V78.5h7.32v10.98h-7.32v10.98h14.64v10.99h-14.64v10.98h7.32v10.98h-7.32v10.98h14.64v10.98h-14.64v10.99h7.32v10.97h-7.32v10.99h14.64v10.98h-14.64v10.98h7.32v10.98h-7.32v10.98h14.64v10.99h-14.64v10.98H360V67.52h-21.96z"/><path class="path-blue" d="M109.98 309.47l.06 7.99h76.68l-.01-7.79-76.73-.2zM103.52 295.28L88.4 306.34l15.15 10.91-.03-21.97zM186.65 295.24l-76.72.3.03 8.44 76.71.2-.02-8.92v-.02zM197.78 295.11l.11 22.35h6.9c5.69 0 9.26-3.61 9.24-7v-8.31c0-3.38-3.75-7-9.34-7z"/><path class="path-light-gray" d="M16.47 289.82a16.47 16.47 0 0 0 0 32.95H22v-32.95zM280.16 37.24v197.67h5.49c6.42 0 11.79 3.11 16.47 6.83v-188a16.31 16.31 0 0 0-16.47-16.47z"/><path class="path-white" d="M74.66 220.4v-36.74h36.74v-9.18H74.66v-64.31H93V101H70a4.59 4.59 0 0 0-4.59 4.59V225a4.61 4.61 0 0 0 4.59 4.59h137.86a4.61 4.61 0 0 0 4.59-4.59V105.58a4.59 4.59 0 0 0-4.59-4.59H111.4v9.18h18.37v27.58H139v-27.58h64.3v55.12h-27.6v-36.75h-9.19v36.75h-18.36v9.19h55.12v45.92"/></svg>