<svg xmlns="http://www.w3.org/2000/svg" viewBox="0 0 360 360"><title>Policies and Standards</title><path class="path-dark-gray" d="M177.44 98.12a80.57 80.57 0 0 0-67.82 124.08l35.46 65.33h67.57l32.62-65.33a80.57 80.57 0 0 0-67.83-124.08zm-5.87 41.36a33.36 33.36 0 0 0-33.31 33.31h-9.81a43.18 43.18 0 0 1 43.13-43.13z"/><path class="path-light-gray" d="M145.08 293.2h67.84v12.42h-67.84zM159.13 347.58h39.74V360h-39.74z"/><rect class="path-blue" x="168.44" width="23.12" height="59.72" rx="11.56" ry="11.56"/><rect class="path-light-gray" x="283.87" y="47.81" width="23.12" height="59.72" rx="11.56" ry="11.56" transform="rotate(45 295.428 77.67)"/><rect class="path-red" x="53.02" y="47.81" width="23.12" height="59.72" rx="11.56" ry="11.56" transform="rotate(-45 64.573 77.673)"/><path class="path-light-gray" d="M145.08 311.28v30.51h67.84V311.28h-67.84z"/></svg>