<svg xmlns="http://www.w3.org/2000/svg" viewBox="0 0 360 360"><title>Protect Yourself</title><path class="path-dark-gray" d="M186.74 113.68V102.1a6.71 6.71 0 0 0-13.43 0v11.59A128.89 128.89 0 0 0 51.18 239a21.17 21.17 0 0 1 36.36 0h.86a21.09 21.09 0 0 1 36.27 0h.87a21.13 21.13 0 0 1 36.31 0h.86a21.64 21.64 0 0 1 12.17-9.44v95.22a37.82 37.82 0 0 0 75.55-2.63 37.53 37.53 0 0 0-1.07-9 6.71 6.71 0 0 0-13 3.19 24.15 24.15 0 0 1 .7 5.78 24.39 24.39 0 0 1-48.71 1.8V230.1A21.65 21.65 0 0 1 199 239h.87a21.13 21.13 0 0 1 36.31 0h.82a21.13 21.13 0 0 1 36.31 0h.87a21.12 21.12 0 0 1 34.64-2.4 129 129 0 0 0-122.08-122.92z"/><path class="path-light-gray" d="M254.18 93.11c10.61 0 23.35-7.16 23.35-24.15 0-10.89-6.36-18.29-23.35-42.16C238 50.67 231.11 58.1 231.11 69c0 16.92 12.99 24.11 23.07 24.11z"/><path class="path-blue" d="M182.85 66.31c10.09 0 23.59-7.16 23.59-23.87 0-10.89-6.63-18.29-23.59-42.44-16.19 24.15-23.07 31.55-23.07 42.44 0 16.71 12.98 23.87 23.07 23.87z"/><path class="path-red" d="M111.51 93.35c10.09 0 23.07-7.43 23.07-24.15 0-10.89-6.91-18.29-23.07-42.44C94.8 50.64 88.16 58.32 88.16 69.21c0 16.71 12.74 24.14 23.35 24.14z"/></svg>