<svg xmlns="http://www.w3.org/2000/svg" viewBox="0 0 360 360"><title>Report a Cyber Incident</title><path class="path-red path-transparent" d="M180 327.27A147.37 147.37 0 0 1 75.8 75.8a147.37 147.37 0 0 1 208.4 208.4A146.35 146.35 0 0 1 180 327.27z"/><path class="path-white" d="M180 65.45a114.32 114.32 0 1 1-81.06 33.49A113.84 113.84 0 0 1 180 65.45M180 0a180 180 0 1 0 180 180A179.78 179.78 0 0 0 180 0z"/><circle class="path-white" cx="180" cy="249.23" r="12.59"/><path class="path-white" d="M180 98.18a9.44 9.44 0 0 0-9.44 9.44v113.29a9.44 9.44 0 0 0 18.88 0V107.62a9.44 9.44 0 0 0-9.44-9.44z"/></svg>