<svg xmlns="http://www.w3.org/2000/svg" viewBox="0 0 360 360"><title>Search</title><path class="path-white" d="M67.5 137.73H90a56.32 56.32 0 0 1 56.25-56.25V59a78.83 78.83 0 0 0-78.75 78.73z"/><path class="path-white" d="M146.25 247.5A101.25 101.25 0 1 1 247.5 146.25 101.36 101.36 0 0 1 146.25 247.5zm0-247.5C65.6 0 0 65.6 0 146.25S65.6 292.5 146.25 292.5A145.33 145.33 0 0 0 223 270.7l79.41 79.43a33.76 33.76 0 1 0 47.74-47.74L270.7 223a145.33 145.33 0 0 0 21.8-76.71C292.5 65.6 226.9 0 146.25 0z"/></svg>