<svg xmlns="http://www.w3.org/2000/svg" viewBox="0 0 360 360"><title>Tools and Solutions</title><path class="path-light-gray" d="M276.92 110.76l27.68-9.2L360 27.68 332.3 0l-73.82 55.38-9.24 27.68-46.16 46.16 27.7 27.7 46.14-46.16z"/><path class="path-blue" d="M120 212.32l-9.24-9.22L0 313.84 46.14 360l110.78-110.76-9.22-9.24 9.2-9.22-27.68-27.68-9.22 9.22z"/><path class="path-red" d="M298.38 298.36a19.59 19.59 0 1 1 0 27.72 19.6 19.6 0 0 1 0-27.72zM193.84 138.48l-12.52-12.52A91.25 91.25 0 0 0 64.68 9.28L95.3 39.9a39.16 39.16 0 0 1-55.38 55.4L9.3 64.68a91.24 91.24 0 0 0 116.63 116.64l163.23 163.22a39.16 39.16 0 1 0 55.38-55.38l-123-123z"/><path class="path-dark-gray" d="M193.84 138.48l27.7 27.68-27.7-27.72v.04z"/></svg>