<svg xmlns="http://www.w3.org/2000/svg" viewBox="0 0 360 204.48"><defs><style>.path-dark-gray{fill:#7d7e7f}.path-light-gray{fill:#afb0b5}.path-red{fill:#981d20;opacity:.9}.path-blue{opacity:.9;fill:#323a45}</style></defs><title>Policy</title><path class="path-dark-gray" d="M186.72 127.11c0-17 7.82-34.07 24.88-42.81-.43 0-.85-.06-1.28-.06h-66.79c-30.38 0-46.45 21.21-46.45 42.87v77.37h28.37v-75.31h13.68v75.31h47.56z"/><path class="path-dark-gray" d="M87.6 127.11c0-17 7.8-34.07 24.86-42.81-.43 0-.85-.06-1.28-.06H46.45C16.07 84.24 0 105.45 0 127.11v77.37h28.39v-75.31h13.68v75.31h45.54v-77.37z"/><path class="path-light-gray" d="M234.26 0l42.31 65.58L318.87 0h-84.61z"/><path class="path-dark-gray" d="M313.55 84.24h-70.87c-30.4 0-46.46 21.21-46.46 42.87v77.37h28.38v-75.31h13.68v75.31h80v-75.31h13.32v75.31H360v-77.37c0-21.66-16.07-42.87-46.45-42.87z"/><path class="path-red" d="M110.74 34c0 18.75-14.68 34-32.79 34S45.17 52.71 45.17 34 59.85 0 78 0s32.79 15.21 32.79 34"/><path class="path-blue" d="M142.25 0h65.58v67.91h-65.58z"/></svg>