<svg xmlns="http://www.w3.org/2000/svg" viewBox="0 0 360 360"><title>Github Logo</title><path class="path-base" d="M180 4.44a180 180 0 0 0-56.9 350.8c9 1.67 12.3-3.91 12.3-8.66 0-4.29-.17-18.47-.24-33.51-50.09 10.93-60.65-21.23-60.65-21.23-8.19-20.8-20-26.34-20-26.34-16.33-11.17 1.23-10.94 1.23-10.94 18.07 1.27 27.59 18.55 27.59 18.55 16.05 27.52 42.11 19.56 52.38 15 1.62-11.63 6.28-19.58 11.43-24.07-40-4.55-82-20-82-89 0-19.65 7-35.71 18.55-48.31-1.87-4.54-8-22.84 1.74-47.64 0 0 15.12-4.84 49.51 18.45a170.68 170.68 0 0 1 90.15 0c34.36-23.29 49.45-18.45 49.45-18.45 9.8 24.79 3.64 43.1 1.77 47.64 11.54 12.61 18.52 28.66 18.52 48.31 0 69.14-42.11 84.36-82.19 88.81 6.46 5.59 12.21 16.54 12.21 33.33 0 24.08-.21 43.47-.21 49.4 0 4.79 3.24 10.4 12.36 8.64A180 180 0 0 0 180 4.44z"/><path class="path-base" d="M68.18 262.88c-.4.9-1.8 1.16-3.09.55s-2-1.81-1.62-2.7 1.8-1.18 3.1-.56 2.05 1.82 1.6 2.72zM75.47 271c-.86.79-2.54.43-3.68-.83s-1.4-2.93-.53-3.74 2.51-.42 3.69.83 1.41 2.93.51 3.74zm-1.72-1.84M82.56 281.38c-1.1.77-2.91 0-4-1.55s-1.1-3.52 0-4.29 2.89-.08 4 1.51 1.1 3.55 0 4.33zm0 0M92.29 291.4c-1 1.09-3.09.79-4.63-.69s-2-3.51-1-4.6 3.11-.78 4.66.69 2 3.52 1 4.6zm0 0M105.7 297.21c-.44 1.41-2.46 2-4.5 1.45s-3.37-2.27-3-3.69 2.46-2.09 4.51-1.45 3.37 2.25 2.95 3.69zm0 0M120.43 298.29c0 1.48-1.68 2.72-3.82 2.74s-3.89-1.15-3.92-2.61 1.69-2.72 3.84-2.75 3.89 1.15 3.89 2.63zm0 0M134.14 296c.26 1.45-1.23 2.93-3.36 3.33s-4-.51-4.29-1.95 1.25-3 3.34-3.36 4 .5 4.31 2zm0 0"/></svg>