<svg xmlns="http://www.w3.org/2000/svg" viewBox="0 0 360 360"><title>cyber.gov</title><path class="path-white" d="M156.2 153.6h78.5l-4.3-42.9h-69.9zM237.6 180h-84.3l-4.3 42.7h92.9zM286 310.3c-5.3 0-36-31.5-37.8-31.5-.2 0-.3-.1-.4-.2l-3-29.6h-98.7l-3.8 37.6c-2.5 1.4-5.1 2.5-7.8 3.4-7 2.2-25.2 36.2-42.1 70.5h14.8c.5-1.1 1.1-1 1.5 0H132c-.7-9.5-2-31.7.3-36.3 2.9-5.9 28-29.9 29.7-30s0 16.8-2.8 19.4-9 1.3-12 4.2c-2.4 2.3-10.6 31.5-13.7 42.6h22.1c6.3-10.4 12.4-19.5 14.1-20.5 3.8-2.3-.9 10.8-3.4 20.5h50.2l1.9-2.9c1.5.4 2.6 1.4 3.2 2.8h15.7c-3.7-9.4-13-48.3-15.5-49.3-2.6-1-5.3 3.6-8.3 2.5-2.1-.8-10.2-12.5-14.5-21.9h26.8c8.3 11.3 15.9 22.2 16.1 23.5.4 2.7-2.9 3.1-2.9 3.1l2.9 28.9s3.9 4.9 6.4 2.5c2-2 3.1 6.6 1.6 10.8h25.9c-.8-6.6-1.9-14.4-1.1-14.9.9-.4 8.6 7.9 14.3 14.9h20.2c-10.7-26.4-20.9-50.1-23.2-50.1zM153.7 81.4h83.5v19.7h-83.5zM235.3 34.3L195.5.7l-39.8 33.6v6.9h79.6zM348.4 63.1c0-4.7.4-9.4 1.4-14L233.5 59.7V63l115.7 10.6c-.5-3.5-.8-7-.8-10.5zM92.8 107.5h2c.6 0 1.3.2 2 .2.6 0 1.3.2 1.9.3l.9.2.9.3 1.7.7c.2.1.4.1.7.1.8-.1 1.4-.8 1.3-1.6-.1-.6-.1-1.2 0-1.8 0-.7.1-1.3.3-1.9.1-.7.3-1.3.5-1.9.2-.6.5-1.3.8-1.9l.4-.9c.2-.3.3-.6.6-.9l1.1-1.8c.4-.6.8-1.1 1.3-1.6.5-.6.9-1.1 1.4-1.7-.6.4-1.3.8-1.9 1.2-.6.4-1.3.8-1.8 1.3l-1.6 1.6c-.3.3-.5.6-.8.9l-.6 1c-.5.6-.8 1.3-1.1 2-.3.7-.6 1.5-.8 2.2-.2.8-.4 1.6-.4 2.4v.3h-.1c-.3-.2-.7-.3-1.1-.3l-1.1-.2c-.7-.1-1.5-.2-2.2-.2-.8 0-1.5 0-2.2.1s-1.4.2-2.2.4-1.4.4-2.1.6c-1.4.4-2.7 1-3.9 1.7 1.4-.2 2.8-.4 4.2-.5.5-.2 1.2-.3 1.9-.3zM291.6 145.1c.4.5.9 1 1.3 1.5s.8 1.1 1.2 1.6c.4.5.7 1.1 1 1.6l.5.8c.2.3.3.6.3.9l.6 1.8c.2.7 1 1.1 1.8.9.2-.1.4-.2.6-.4.4-.4.9-.9 1.4-1.2.5-.4 1.1-.7 1.6-1.1 1.2-.7 2.4-1.2 3.7-1.5l1-.3c.3-.1.7-.1 1-.2l2.1-.3c.7-.1 1.4-.1 2.1-.1.7 0 1.5-.1 2.2-.1-.7-.2-1.4-.5-2.1-.7-.7-.2-1.4-.4-2.2-.5l-2.2-.1h-1.1l-1.4.3c-.8.1-1.5.2-2.2.5-.7.2-1.5.5-2.2.8-.7.4-1.4.8-2 1.2-.1 0-.2.1-.2.2v-.1c-.1-.4-.2-.7-.4-1.1l-.6-.9c-.4-.6-.8-1.2-1.3-1.8-.5-.6-1-1.1-1.5-1.6s-1.1-.9-1.7-1.4-1.2-.8-1.8-1.2c-1.2-.7-2.5-1.3-3.8-1.8 1.1.9 2.1 1.8 3.1 2.8.2.5.7 1 1.2 1.5z"/><path class="path-white" d="M103.5 360.7c1.9-.9 3.8-1.9 5.6-2.9-3.3-2.2-6.4-4.6-10.9-4.6-7.3 0-11.1 6.5-17.6 7.6h22.9zM37.8 360.7c-6.6-1.1-10.5-7.6-17.6-7.6-4 0-7.1 5.2-10 7.4l.3.1 27.3.1zM76.9 360.7c-6.6-1.1-10.5-7.6-17.7-7.6s-11.1 6.5-17.6 7.6h35.3zM321.6 360.5c-4.4-.9-7.1-6.2-11.9-6.2-2.7 0-4.8 4.3-6.7 6.1l.2.1h18.4z"/><path class="path-white" d="M342 360.5c-4.4-.9-7.1-6.2-11.9-6.2-4.8 0-7.5 5.3-11.9 6.2H342zM168.2 47.7H180v26.6h-11.8V47.7zm14.2 0h11.8v26.6h-11.8V47.7zm14.4 0h11.8v26.6h-11.8V47.7zm14.2 0h11.8v26.6H211V47.7zm14.3 29.1V45.2h-59.7v31.6h59.7z"/></svg>