<svg xmlns="http://www.w3.org/2000/svg" viewBox="0 0 360 360"><title>cyber.gov</title><path class="path-white" d="M156.22 153.63h78.49l-4.3-42.91h-69.89l-4.3 42.91zM237.62 179.98h-84.3l-4.28 42.76h92.86l-4.28-42.76zM244.8 249.09h-98.67l-4.27 42.75h107.22l-4.28-42.75z"/><path class="path-white" d="M218.36 357.76a4.89 4.89 0 0 1 3.24 2.8h15.69c-3.72-9.38-13-48.32-15.47-49.26-2.65-1-5.32 3.61-8.29 2.46-2.09-.81-10.18-12.49-14.55-21.92h-57.12l.52-5.15a45 45 0 0 1-7.77 3.38c-7 2.24-25.18 36.17-42.07 70.51h14.77c.55-1.11 1.06-1 1.52 0H132c-.67-9.51-2-31.67.32-36.28 2.91-5.9 28-29.87 29.69-30s0 16.75-2.82 19.43-9 1.34-12 4.24c-2.43 2.35-10.59 31.46-13.66 42.65h22.14c6.29-10.44 12.38-19.48 14.06-20.51 3.79-2.33-.93 10.77-3.44 20.51h50.19zM286 310.35c-5.29 0-36-31.47-37.81-31.47a.81.81 0 0 1-.44-.21l1.32 13.17h-23.28c8.32 11.26 15.9 22.22 16.07 23.48.35 2.66-2.94 3.07-2.94 3.07l2.94 28.89s3.87 4.9 6.41 2.46c2-2 3.06 6.64 1.57 10.83h25.93c-.84-6.62-1.94-14.44-1.08-14.86s8.56 7.88 14.26 14.86h20.15c-10.65-26.57-20.77-50.22-23.1-50.22zM153.71 81.44h83.53v19.71h-83.53zM235.26 34.34L195.49.72l-39.81 33.62v6.87h79.58v-6.87zM348.4 63.06a66.33 66.33 0 0 1 1.36-14L233.53 59.71V63L349.2 73.62a77.62 77.62 0 0 1-.8-10.56zM92.76 107.52h2c.64 0 1.32.15 2 .17a9 9 0 0 1 1.91.35l.94.2a4.07 4.07 0 0 1 .87.33l1.71.72a1.39 1.39 0 0 0 .68.11 1.45 1.45 0 0 0 1.31-1.55 9.93 9.93 0 0 1 0-1.84 11.64 11.64 0 0 1 .29-1.95 14.43 14.43 0 0 1 .53-1.93 11.29 11.29 0 0 1 .78-1.86l.44-.94a5.75 5.75 0 0 1 .55-.9l1.14-1.78a16.16 16.16 0 0 1 1.32-1.65c.46-.55.92-1.14 1.38-1.73-.63.37-1.27.77-1.88 1.16a15.9 15.9 0 0 0-1.84 1.31l-1.6 1.62a5.85 5.85 0 0 0-.75.88l-.63 1a9.31 9.31 0 0 0-1.14 2 15.65 15.65 0 0 0-.83 2.21 13.46 13.46 0 0 0-.42 2.37 1.3 1.3 0 0 1 0 .29h-.13a4.34 4.34 0 0 0-1.09-.35l-1.12-.17a11.18 11.18 0 0 0-2.24-.2c-.75 0-1.49 0-2.21.09s-1.45.22-2.15.37-1.4.38-2.08.57a18.75 18.75 0 0 0-3.9 1.73c1.42-.18 2.78-.38 4.17-.47.63-.08 1.29-.19 1.99-.16zM291.56 145.07c.44.53.9 1 1.31 1.49s.77 1.07 1.16 1.58a9.18 9.18 0 0 1 1 1.64l.46.83a2.57 2.57 0 0 1 .33.88l.57 1.75a1.4 1.4 0 0 0 2.34.55 9.47 9.47 0 0 1 1.36-1.21 12.22 12.22 0 0 1 1.64-1.05 15.34 15.34 0 0 1 3.7-1.51l1-.29a5.28 5.28 0 0 1 1-.17l2.06-.31a17.76 17.76 0 0 1 2.12-.09c.72 0 1.45-.06 2.19-.11-.68-.24-1.4-.46-2.1-.66a14.77 14.77 0 0 0-2.19-.5l-2.25-.13a5.15 5.15 0 0 0-1.14 0L305 148a8.65 8.65 0 0 0-2.25.48 16.26 16.26 0 0 0-2.19.83 13.63 13.63 0 0 0-2 1.23.93.93 0 0 0-.22.17v-.13a4.36 4.36 0 0 0-.44-1.05l-.61-.94a10.79 10.79 0 0 0-1.32-1.79c-.48-.55-1-1.08-1.51-1.6s-1.09-.92-1.67-1.36-1.18-.79-1.77-1.18a17.89 17.89 0 0 0-3.83-1.78c1.07.94 2.1 1.82 3.07 2.8.33.45.86.87 1.3 1.39z"/><path class="path-white" d="M103.51 360.72q2.84-1.38 5.57-2.94c-3.32-2.22-6.43-4.65-10.86-4.65-7.3 0-11.08 6.5-17.63 7.59zM37.85 360.72c-6.58-1.09-10.54-7.59-17.65-7.59-4 0-7.09 5.22-10 7.43l.28.15zM76.87 360.72c-6.58-1.09-10.54-7.59-17.65-7.59s-11.06 6.5-17.64 7.59zM348.67 360.72a23.45 23.45 0 0 0-7.2-1.48 49.76 49.76 0 0 1-41.62-22.45h-26.54v23.93zM168.17 47.72h11.76v26.56h-11.76zm14.28 0h11.77v26.56h-11.78zm14.3 0h11.77v26.56h-11.78zm14.28 0h11.76v26.56H211zm14.29 29.09V45.2h-59.67v31.61z"/></svg>