<svg xmlns="http://www.w3.org/2000/svg" viewBox="0 0 360 360"><title>Envelope</title><path class="path-base" d="M26.34 57.07a26.47 26.47 0 0 0-11.25 2.47l152 150.09a18.09 18.09 0 0 0 25.52 0L344.77 59.54a26.39 26.39 0 0 0-11.11-2.47zM2.61 71.89A26.45 26.45 0 0 0 0 83.41v193.18a26.38 26.38 0 0 0 2.74 11.66L116.89 184.8zm354.79 0L243 184.66l114.26 103.59a26.38 26.38 0 0 0 2.74-11.66V83.41a26.45 26.45 0 0 0-2.61-11.52zM230.49 197L205 222.12a35.86 35.86 0 0 1-50.21 0l-25.38-25-114 103.44a26.49 26.49 0 0 0 11 2.33h307.25a26.49 26.49 0 0 0 11-2.33L230.49 197z"/></svg>