<svg xmlns="http://www.w3.org/2000/svg" viewBox="0 0 75.6 54"><defs><style>.path-white{fill:#fff}</style></defs><title>American Flag</title><path class="path-white" d="M30.85 31.88c.63.78.7 2.1 1.05 3.15-12.63-3.94-22.56 4.91-29.23 10.11-.6-5.4 4.52-7.44 8.69-9.86C17 32 23.25 29.54 30.85 31.88zM29.55 40.56c-2 1.3-6.21.21-7.41 2.3a3.48 3.48 0 0 1-.63-1.8 16.75 16.75 0 0 1 8.04-.5zM25.42 46.05a2.39 2.39 0 0 0-.71 2c-5.16-5 4.81-4.77 8.16-5.86 5.95 3.09-4.87 3-7.45 3.86z"/><path class="path-white" d="M48.06 30.68c-.25-1.08-.64-2-.83-3.14-5.9.77-11-2.61-17.35-2.81a33.67 33.67 0 0 1-.6-3.58c6.21.32 10.41 3.7 16.9 3 .27-.78-.37-2.36-.6-3.36-6.62.93-10.5-2.59-16.45-3-.45-1-.14-2.64-.6-3.58 5.27.08 10.1 4.7 16.23 3.24a13.58 13.58 0 0 0-.6-3.36c-6.48 1.68-10.1-2.92-15.78-3.45-.27-1-.19-2.3-.38-3.36 5.61.25 9.66 5.85 15.56 3a16 16 0 0 0-.37-3.58C51 4.48 55.08 13.4 62.73 12c.6.59.5 1.85.61 2.91-7.73 1.68-11.7-7.14-19.54-4.65 0 1.14.43 1.77.39 2.91 7.14-3 11.81 5.85 19.76 4.87a22 22 0 0 1 .6 3.14C57.34 22.31 51 12.71 45 17.44a19.35 19.35 0 0 0 .61 2.69c5.6-3.86 12.24 4.46 19.55 4.2a22.79 22.79 0 0 1 .61 2.91c-6.58 1-13.7-8-19.35-3.08a10.8 10.8 0 0 1 .58 2.92c5.65-5 12.08 3.64 19.57 3.31.06 1.11.59 1.77.61 2.91-6.91.88-13.11-7.42-19.14-2.63.29 1 .57 1.93.83 2.92 4.78-4.49 12.33 3.06 19.36 2.86.2 1 .63 1.87.83 2.92-6.51 1.07-14.06-7.81-19.13-2.18a17.21 17.21 0 0 1 .61 2.69c5.11-5.33 12.87 3.51 19.59 2.41.18 1 1.27 2.2.83 3.14-6.94.71-14.15-7.86-19.15-2.18 0 1.05.69 1.38.62 2.47 6.48-4.52 13.22 4.22 20 2 0 1.29 1.6 2 1.28 2.93-6.43 2.46-13.19-6-19.61-1.52.15 1.83 3.53.55 3.75 2.31-4.93.57-10.26-1.21-15.6-1-2.94.12-5.69 1-8.28 1.17-3.87.18-10.27-.75-8.15-5.08 7.27 4 19-1.42 27.41 2.13.39-.53-.51-1.69-.62-2.47-5-1.92-12.59-1.76-18.28-.82-1.18-.35 1.19-.46.7-1.55-1.19-2.67-4.24-3.75-7.51-3.95C16.6 39.18 9.3 48.16 2.3 52.27a18 18 0 0 0 .52-3.78c6.72-5.74 17.62-15.32 30.12-10.09-.08-1.23-.81-1.85-.83-3.14 5.71.15 11.8.39 17.37 1.7.49-.69-.63-1.72-.61-2.69-6-.69-10.92-2.49-17.81-2.38-.11-1-.69-1.52-.61-2.69-11.63-4-21.69 3.73-27.63 8.58L2.9 34c5.84-5.59 15.1-10.84 26.73-8.17a22.25 22.25 0 0 1 .62 2.47c6.38.36 11.55 1.89 17.81 2.38zm-14.67 8A9.29 9.29 0 0 0 34.65 42c5.51-1.07 12.4 0 16.95.8-.53-.73-.54-2-1.06-2.7a60.75 60.75 0 0 0-17.15-1.47z"/><path class="path-white" d="M27.31 3.66C19.28-.31 7 2.37 1.8 6.92c.7 7.34.91 15.17 1.09 23 6-4.93 15-9.43 26-7-.37-6.57-1.2-12.7-1.58-19.26zm-2.65.26l.64.08.46-.46.09.64.58.29-.58.28-.1.64-.46-.39-.64.11.35-.62zm0 3.87l.64.11.46-.46.09.64.58.29-.58.28-.1.64-.45-.47-.64.11.31-.57zm-2.1 1.63h.65l.36-.42.16.63.61.23-.55.34v.65l-.5-.42-.63.17.24-.6zM23 5.48l.43-.48.16.63.61.23-.55.34v.65l-.5-.42-.63.17.24-.6-.36-.54zm-2.29-2l.34-.56.24.6.63.15-.5.41.06.65-.55-.35-.6.25.17-.63-.43-.49zm0 3.76l.29-.55.24.6.63.15-.5.41.06.65-.55-.35-.6.25.16-.63-.44-.49zm-.77 7.36l-.59-.28-.56.32.09-.64-.48-.44.64-.11.27-.59.31.57.65.07-.45.47zm-.32-4.14l-.62-.27-.56.32.09-.64-.48-.44.64-.12.31-.59.31.57.65.07-.45.47zm-1.14-5.17l.27-.59.31.57.65.07-.45.47.13.64-.59-.28-.56.32.09-.64-.48-.44zm-1 3.26l-.6-.24-.54.36v-.65l-.51-.4.63-.16.22-.61.32.55h.65l-.41.5zm-1.64 6.37l-.62-.19-.51.41v-.65l-.54-.36.61-.22.17-.63.39.52h.65l-.37.53zm.52-11.45l.22-.61.35.55h.65l-.41.5.18.62-.6-.24-.54.36V4l-.51-.4zm-.84 7.38l-.62-.19-.51.41v-.65l-.54-.36.61-.22.17-.63.39.52h.65l-.37.53zm-1.36-5.27l.17-.58.39.52h.65L15 6l.23.61-.62-.19-.51.41v-.65l-.54-.36zm-.72 7.79l-.63-.17-.5.42v-.65l-.55-.34.61-.23.15-.63.41.51h.65l-.36.54zm-.1-4.09l-.63-.17-.5.42v-.65l-.55-.34.61-.23.15-.63.41.51h.65l-.36.54zM11.8 4.2l.15-.63.41.51L13 4l-.36.54.25.6-.62-.14-.5.42v-.65l-.55-.34zm-.42 7.8l-.64-.12-.46.46-.08-.64-.58-.3.59-.28.1-.64.45.47.64-.1-.31.57zM9.89 6.83l.1-.64.45.47.64-.1-.31.57.29.58-.64-.12-.42.46-.08-.64-.58-.3zm-.69 3.83l-.64-.1-.45.44-.11-.6-.59-.28.59-.3.08-.65.46.46.64-.12-.29.58zm-2 3h-.65l-.39.52-.16-.66-.61-.21.61-.36v-.65l.51.4.62-.19-.23.61zm-1 3.61v-.65l.51.4.62-.19-.23.61.37.53h-.65l-.39.52-.17-.63-.61-.21zM7.45 5.53l.08-.65.47.46.64-.12-.29.58.31.57-.66-.1-.44.47-.11-.64-.59-.28zm-1.59 3v-.66l.51.4.63-.19-.23.61.37.53h-.65l-.39.52-.17-.63-.61-.21zm-2.52-1.6l.55.35.6-.28-.16.63.42.49H4.1l-.34.56-.24-.61L2.89 8l.5-.41zm.38 4.93l-.05-.65.55.35.6-.25-.16.63.42.49h-.65l-.35.57-.24-.61-.63-.15zM4 16.52l-.05-.65.55.35.6-.25-.16.63.42.49h-.65l-.34.56-.24-.61-.63-.15zm0 4l.55.35.6-.25-.15.63.42.49h-.65l-.34.56-.24-.61-.63-.15.5-.41zm1.1 5.58l-.34.56-.24-.61-.62-.15.5-.41-.05-.65.55.35.6-.25-.16.63.42.49zm1.82-3.4l-.39.52-.17-.63-.61-.21.54-.38v-.65l.51.4.62-.19-.23.61.37.53zm1.24-8.57l.08-.65.46.52.64-.12-.29.58.31.57-.64-.1-.44.48-.11-.64-.59-.28zm.25 4.28l.08-.65.46.46.64-.12-.29.58.31.57-.61-.09-.44.47-.14-.63-.59-.28zm.77 5.21l-.44.47-.11-.64-.63-.26.58-.3.08-.65.46.46.64-.12-.29.58.31.57zm1.32-8.34l.1-.64.45.47.64-.1-.31.57.29.58-.67-.11-.46.46-.08-.64-.58-.3zm1.24 5.16l-.64-.12-.46.46-.08-.64-.58-.3.59-.28.1-.64.45.47.64-.1-.31.57zm.81-3.8l.15-.64.41.51h.65l-.36.49.25.6-.65-.16-.5.42v-.65l-.55-.34zm1.55 5l-.64-.13L13 22l-.07-.65-.58-.35.59-.27.12-.64.44.48.64-.09-.32.56zm1.77-2.37l-.62-.19-.51.41v-.65l-.54-.36.61-.22.17-.63.39.52h.65l-.37.53zm.77-7.65l.22-.61.35.55h.65l-.41.5.18.62-.6-.24-.54.36v-.65L16 11.8zm.29 4.1l.22-.61.35.55h.65l-.41.5.18.62-.6-.24-.54.36v-.65l-.51-.4zm1.35 5l-.62-.2-.51.4v-.65l-.54-.37.62-.2.18-.62.38.52h.65l-.38.53zm1.85-2.13l-.58-.28-.56.32.09-.64-.48-.44.64-.11.27-.59.31.57.65.07L20 18zm.19-7.21h.65l.34-.56.24.6.63.15-.5.41.06.65-.55-.35-.6.25.16-.63zm1 4l.31-.57.26.59.64.12L22 16l.09.64-.56-.32-.59.28.13-.64-.45-.47zm1.07 5.24l-.57-.32-.58.28.13-.64-.45-.47.65-.07.31-.57.27.59.64.11-.49.47zm.31-7.25h.65l.41-.51.16.63.61.23-.55.34v.65l-.5-.42-.63.17.24-.6zm1.76 5.41l-.57-.31-.58.3.11-.64-.42-.42.64-.09.29-.58.28.58.64.1-.47.45zm.38-7.16l.64.11.46-.46.06.73.58.29-.58.28-.1.64-.45-.47-.64.11.31-.57zm.87 4.16l.36-.54.21.62.62.18-.52.39v.65l-.53-.38-.61.22.19-.62-.4-.51zm.89 4.88l-.6-.29-.59.28.14-.63-.44-.47.65-.06.31-.57.26.6.64.12-.49.43z"/></svg>