<svg xmlns="http://www.w3.org/2000/svg" viewBox="0 0 360 360" class="link-icon link-icon-email"><title>Link - Email</title><path class="path-base" fill="#212121" d="M0 0v360h360V0zm333 333H27V27h306z"/><path class="path-red" fill="#981b1e" d="M90 105.43a18 18 0 0 0-18 18v113.14a18 18 0 0 0 18 18h180a18 18 0 0 0 18-18V123.43a18 18 0 0 0-18-18zm0 5.14h180a12.77 12.77 0 0 1 8.28 3.05l-88.88 75.3a14.2 14.2 0 0 1-19 0l-88.6-75.3a12.71 12.71 0 0 1 8.2-3.05zm-11.49 7.07l88.63 75.13a19.54 19.54 0 0 0 25.55 0l88.79-75.13a12.94 12.94 0 0 1 1.37 5.79v113.14A12.77 12.77 0 0 1 270 249.43H90a12.77 12.77 0 0 1-12.86-12.86V123.43a12.94 12.94 0 0 1 1.37-5.79z"/></svg>