<svg xmlns="http://www.w3.org/2000/svg" viewBox="0 0 360 360" class="link-icon link-icon-email"><title>Link - Email</title><path class="path-base" fill="#212121" d="M0 0v360h360V0zm333 333H27V27h306z"/><path class="path-red" fill="#981b1e" d="M75.38 105.75a3.19 3.19 0 0 0-3.38 3.38v13.5a5.58 5.58 0 0 0 2.74 4.64l101.88 51.47a9.43 9.43 0 0 0 6.12 0l101.88-51.47a5 5 0 0 0 3.38-4.64v-13.5a3.19 3.19 0 0 0-3.37-3.37zm-1.69 41.55c-1 0-1.69.8-1.69 2.32v101.26a3.19 3.19 0 0 0 3.38 3.38h209.25a3.19 3.19 0 0 0 3.38-3.37V149.63c0-2-1.39-2.78-2.74-2.11L183.38 199a9.43 9.43 0 0 1-6.12 0L74.74 147.51a2.41 2.41 0 0 0-1.05-.21z"/></svg>