<svg xmlns="http://www.w3.org/2000/svg" viewBox="0 0 360 360"><defs><style>.a{fill:#fff}</style></defs><title>Artboard 1</title><path class="a" d="M307.28 52.72a180 180 0 1 0 0 254.56 180 180 0 0 0 0-254.56zm-8.34 129.57a34.23 34.23 0 0 1-34.23 34.22H216.5v48.2a34.22 34.22 0 0 1-34.22 34.22h-4.56a34.22 34.22 0 0 1-34.22-34.22V216.5H95.3a34.22 34.22 0 0 1-34.22-34.22v-4.56A34.22 34.22 0 0 1 95.3 143.5h48.2V95.29a34.22 34.22 0 0 1 34.22-34.22h4.56A34.22 34.22 0 0 1 216.5 95.3v48.2h48.2a34.23 34.23 0 0 1 34.23 34.22z"/></svg>