<svg xmlns="http://www.w3.org/2000/svg" viewBox="0 0 360 231.68"><defs><style>.path-white{fill:#fff}</style></defs><title>Quotes</title><path class="path-white" d="M135.41 0C60.84 0 .41 40.55.41 90.6c0 27 17.59 51.19 45.47 67.78-5.95 11-17.68 25-41.93 44-4 3.12-8.9 7.59 7.11 4.39 26.81-5.36 55.42-19 77.23-31.29a194.37 194.37 0 0 0 47.12 5.68c74.57 0 135-40.55 135-90.6S210 0 135.41 0z"/><path class="path-white" d="M357.07 227.23c-20.81-16.33-23.77-25.54-24.79-32.25 14.51-10.52 23.4-24.6 23.4-40.06 0-28.78-30.71-52.73-71.35-57.94-3.37 41.19-39.11 75.3-90.11 90.26 15.71 16.07 42.77 26.68 73.55 26.68a125 125 0 0 0 37.07-5.5C316.72 216 337 227.7 355.1 231.3c8.27 1.64 4.03-2.48 1.97-4.07z"/></svg>