<svg xmlns="http://www.w3.org/2000/svg" viewBox="0 0 360 424.74"><defs><style>.path-dark-gray{fill:#7d7e7f}.path-blue,.path-red{fill:#323a45;opacity:.9}.path-red{fill:#981d20}.path-light-gray{fill:#afb0b5}</style></defs><title>Training and Education</title><path class="path-dark-gray" d="M315 358.41c-53 2.31-103.94 31.12-126.66 45.84V288.06C203.73 277.47 259 242.17 315 239.47zM45 239.5c56 2.69 111.26 38 126.66 48.56v116.22C149 389.56 98 360.72 45 358.44zM321.66 226c-63.43 0-125.48 40.26-141.66 51.57C163.82 266.25 101.77 226 38.34 226a6.66 6.66 0 0 0-6.67 6.67V365a6.66 6.66 0 0 0 6.67 6.67c67.73 0 137 51.28 137.66 51.78a4.59 4.59 0 0 0 .75.38 3.64 3.64 0 0 0 .66.32 6.18 6.18 0 0 0 2.59.63 6.67 6.67 0 0 0 2.59-.61 3.89 3.89 0 0 0 .63-.33 7 7 0 0 0 .75-.4c.68-.53 69.82-51.78 137.66-51.78a6.66 6.66 0 0 0 6.67-6.66V232.66a6.64 6.64 0 0 0-6.64-6.66z"/><path class="path-blue" d="M112.11 0h151.23v156.62H112.11z"/><path class="path-red" d="M109.08 340.64a24.72 24.72 0 1 0-24.72-24.72 24.73 24.73 0 0 0 24.72 24.72z"/><path class="path-dark-gray" d="M70.22 216.35C127.41 229 177 265.82 177.51 266.17a4.18 4.18 0 0 0 2.49.83 4.13 4.13 0 0 0 2.49-.83c.5-.35 50.09-37.14 107.29-49.82a4.17 4.17 0 0 0 1.84-7.19 168.94 168.94 0 0 0-223.25 0 4.13 4.13 0 0 0-1.28 4.18 4.17 4.17 0 0 0 3.13 3.01zM60 300.36c0 20.71-13.44 37.49-30 37.49S0 321.07 0 300.36s13.44-37.51 30-37.51 30 16.81 30 37.51M360 300.36c0 20.71-13.44 37.49-30 37.49s-30-16.79-30-37.49 13.44-37.51 30-37.51 30 16.81 30 37.51"/><path class="path-light-gray" d="M213.99 302.03l31.9 49.44 31.89-49.44h-63.79z"/></svg>